<svg id="Layer_1" data-name="Layer 1" xmlns="http://www.w3.org/2000/svg" viewBox="0 0 119.45 99.3"><title>about_1</title><path d="M36.79,3.36c-15.48,5-32,17.25-35.54,33S2,69,11.37,82.13c7.19,10,18.73,18.42,31.08,17,9.21-1,17-7.24,25.86-9.81,8.19-2.38,17-1.6,25.24-4,17.16-5,27.92-24.09,25.57-41.6s-16-32.38-32.57-39S51-1.08,34,4.18" style="fill:#abc8fb"/><path d="M59.72,20.33A29.32,29.32,0,1,0,89.05,49.65,29.32,29.32,0,0,0,59.72,20.33Zm0,52.77A23.45,23.45,0,1,1,83.17,49.65,23.47,23.47,0,0,1,59.72,73.1Zm-11-19,13.23-25V45.24h8.81l-12.81,25V54.06Z" style="fill:#6a89cc;fill-rule:evenodd"/></svg>