<svg id="Layer_1" data-name="Layer 1" xmlns="http://www.w3.org/2000/svg" viewBox="0 0 119.44 99.3"><title>about_4</title><path d="M36.79,3.36c-15.49,5-32,17.25-35.54,33S1.94,69,11.37,82.13c7.19,10,18.73,18.42,31.08,17,9.21-1,16.95-7.24,25.86-9.81,8.19-2.38,17-1.6,25.24-4,17.16-5,27.92-24.09,25.57-41.6s-16-32.38-32.57-39S51-1.08,34,4.18" transform="translate(0 0)" style="fill:#abc8fb"/><path d="M71.47,29.14l6.73,6.73L63.87,50.21,52.11,38.46,30.34,60.26l4.14,4.14L52.11,46.77,63.87,58.52,82.37,40l6.73,6.73V29.14Z" transform="translate(0 0)" style="fill:#6a89cc"/></svg>