<svg id="Layer_1" data-name="Layer 1" xmlns="http://www.w3.org/2000/svg" viewBox="0 0 119.45 99.3"><title>about_3</title><path d="M36.79,3.36c-15.48,5-32,17.25-35.54,33S1.94,69,11.37,82.13c7.19,10,18.74,18.42,31.08,17,9.21-1,17-7.24,25.86-9.81,8.19-2.38,17-1.6,25.24-4,17.16-5,27.93-24.09,25.57-41.6s-16-32.38-32.56-39S51-1.08,34,4.18" transform="translate(0 0)" style="fill:#abc8fb"/><path d="M62.28,55.79l-7.46-7.37.08-.09A51.27,51.27,0,0,0,65.8,29.14h8.62V23.27H53.84V17.39H48v5.88H27.4v5.84H60.22a46,46,0,0,1-9.31,15.75A45.86,45.86,0,0,1,44.12,35H38.24A51.92,51.92,0,0,0,47,48.42l-15,14.75,4.16,4.17,14.7-14.69,9.14,9.13Zm16.54-14.9H73L59.72,76.15H65.6l3.29-8.81h14l3.32,8.81h5.88Zm-2.94,7.85L71.12,61.46h9.52Z" transform="translate(0 0)" style="fill:#6a89cc;fill-rule:evenodd"/></svg>