<svg id="Layer_1" data-name="Layer 1" xmlns="http://www.w3.org/2000/svg" viewBox="0 0 119.45 99.3"><title>about_2</title><path d="M36.79,3.36c-15.48,5-32,17.25-35.54,33S2,69,11.37,82.13c7.19,10,18.73,18.42,31.08,17,9.21-1,17-7.24,25.86-9.81,8.19-2.38,17-1.6,25.24-4,17.16-5,27.92-24.09,25.57-41.6s-16-32.38-32.57-39S51-1.08,34,4.18" transform="translate(0 0)" style="fill:#abc8fb"/><path d="M59.72,17.33,33.28,29.08V46.71C33.28,63,44.56,78.27,59.72,82,74.88,78.27,86.17,63,86.17,46.71V29.08ZM80.29,46.71c0,13.28-8.76,25.53-20.57,29.18C47.91,72.24,39.16,60,39.16,46.71V32.9l20.56-9.14L80.29,32.9Zm-38.2,5.88,4.15-4.15L53.85,56,73.21,36.66l4.14,4.17L53.85,64.34Z" transform="translate(0 0)" style="fill:#6a89cc;fill-rule:evenodd"/></svg>