<svg xmlns="http://www.w3.org/2000/svg" width="333.99" height="217.29" viewBox="0 0 333.99 217.29"><title>br_icon</title><g style="isolation:isolate"><g id="Layer_1" data-name="Layer 1"><path d="M0,175.32c.09-3.52.22-7,.42-10.58Z" style="fill:#0076ff;fill-opacity:0.189999997615814"/><path d="M267.84,185.53v0a24.9,24.9,0,0,1-2.29,6c-9,16.43-47.91,13.73-47.91,13.73H128.79c-36.77,0-51.51-.91-55-12.39a16,16,0,0,1-.48-2c-2.49-13.34,9.92-56.75,32.86-86.52C117.88,89.2,130,81.18,140.83,77a69.7,69.7,0,0,1,25.84-4.52c11.28,0,20.38.84,28.1,2.64,20.73,4.86,31.57,16.58,47.84,37.37C262.5,137.87,272.29,167.7,267.84,185.53Z" style="fill:#0a3d62"/><path d="M111.79,175.42c9.64-15.16,12.67-36.2,15.35-57.55l8.38,43.42h72.56l13.34-43.42c-.32,20.29,2.47,40.2,12.09,59.24C233.51,177.11,186.06,230.8,111.79,175.42Z" style="fill:#1f395e;opacity:0.22;mix-blend-mode:multiply"/><path d="M268.06,185.53s0,0,0,0a25.32,25.32,0,0,1-2.29,6c-9,16.43-47.92,13.73-47.92,13.73H191.49L194.84,183s46.74-21.64,63.48-14.89C266.51,171.37,269,178.21,268.06,185.53Z" style="fill:#3c6382"/><path d="M214.13,205.29H129a3.62,3.62,0,0,1-3.72-3.5h0a3.62,3.62,0,0,1,3.72-3.5h85.13a3.61,3.61,0,0,1,3.72,3.5h0A3.61,3.61,0,0,1,214.13,205.29Z" style="fill:#fff"/><path d="M224.16,141.62l-.32,1.94v0L215,198.29H128.08l-8.74-56.71a4.6,4.6,0,0,1,4.53-5.29h95.76A4.6,4.6,0,0,1,224.16,141.62Z" style="fill:#6a89cc"/><path d="M224.12,143.68l-8.82,54.61H129l29.25-3A78.67,78.67,0,0,0,224.12,143.68Z" style="fill:#4a69bd"/><path d="M195,75.56C194.2,86,189.89,105,168.86,105,146.7,105,142,86.28,141,77.44a69.78,69.78,0,0,1,25.85-4.52C178.16,72.92,187.26,73.76,195,75.56Z" style="fill:#3c6382"/><path d="M168.72,97.29h-.58a20.39,20.39,0,0,1-8.37-1.69,15.11,15.11,0,0,1-8.65-14.16c0-.62,0-1.21,0-1.81,0-5-.3-9.1-.3-9.1V68.3l31.26-1.4a71.21,71.21,0,0,0,1.25,11.71.66.66,0,0,1,0,.15A15.49,15.49,0,0,1,168.72,97.29Z" style="fill:#feb19e"/><path d="M183.35,78.43c-13,15.29-26.41,6.36-32.21,1,0-5-.3-9.1-.3-9.1V68.12l31.26-1.4A71.21,71.21,0,0,0,183.35,78.43Z" style="fill:#ff856a"/><path d="M142.78,52.47s2.1,10.37,7.21,18.43c2.07,3.25,11.54,6.78,17.1,6.78,5,0,12.57-3,14.87-7.87,4.13-8.67,5.55-19.73,5.55-19.73l4.76-15-6.18-9.75-49.5,2.17Z" style="fill:#feb19e"/><path d="M139.37,37.59s-4.25.82-3.52,5.95,5.15,11.34,8.75,8.07Z" style="fill:#feb19e"/><path d="M190.88,35.45s4.31.2,4.26,5.38-3.64,12-7.63,9.25Z" style="fill:#feb19e"/><path d="M334,217.29H7.21c-.89-4-1.65-8-2.32-12H332.71C333.19,209.29,333.64,213.3,334,217.29Z" style="fill:#c1c8d3"/><path d="M157.44,41.29a28.35,28.35,0,0,0-5.38-.29,43.92,43.92,0,0,0-2.95,5.7,24.1,24.1,0,0,0-1.45,4.52,8.9,8.9,0,0,0,6.15,2.06C154.68,49.22,155.25,44.7,157.44,41.29Z" style="fill:#eaeced;opacity:0.4"/><path d="M180.41,40.86a28.88,28.88,0,0,0-5.39.23,44.81,44.81,0,0,0-2.37,6,23.65,23.65,0,0,0-1,4.64A8.92,8.92,0,0,0,178,53.15C178.43,49,178.56,44.47,180.41,40.86Z" style="fill:#eaeced;opacity:0.4"/><path d="M186.12,41.34l-.12-.42-.41-.17a22.15,22.15,0,0,0-16.22.62,17.27,17.27,0,0,0-2.53,1.41v-.16l-3,.12-.05-.13-.42-.22a22.1,22.1,0,0,0-2.75-1.28,22.37,22.37,0,0,0-16.3.43l-.4.19-.09.44c-.05.24-.43,2.51,1.7,7.65a7,7,0,0,0,4.28,4,12.92,12.92,0,0,0,5.2.71c6-.66,7-3.54,7.73-5.45,0-.1.08-.21.11-.31a15.68,15.68,0,0,0,.88-3.4,3.67,3.67,0,0,1,2.69,0,14.8,14.8,0,0,0,1.16,3.74c0,.09.09.19.13.3.82,1.86,2.06,4.66,8.07,4.94a13,13,0,0,0,5.14-1,7.07,7.07,0,0,0,4-4.24C186.7,43.83,186.18,41.58,186.12,41.34ZM161,47.8l-.12.32c-.64,1.76-1.37,3.75-6.24,4.29a7.91,7.91,0,0,1-.88,0,10.73,10.73,0,0,1-3.52-.61A5.72,5.72,0,0,1,147.65,50a4.62,4.62,0,0,1-.72-1.21,17.5,17.5,0,0,1-1.62-6.19,21.28,21.28,0,0,1,6.18-1.34h0a20.35,20.35,0,0,1,5.34.33h0a18.74,18.74,0,0,1,2.9.83,17.59,17.59,0,0,1,2.08.93A12.39,12.39,0,0,1,161,47.8Zm22.28.72a5.37,5.37,0,0,1-3.07,3.19,9.23,9.23,0,0,1-2.11.65,10.59,10.59,0,0,1-2.24.23,9.42,9.42,0,0,1-4.16-1,5.4,5.4,0,0,1-2.34-2.93c-.05-.11-.1-.21-.14-.32A12.42,12.42,0,0,1,168,44.05,18.41,18.41,0,0,1,170,43a18.93,18.93,0,0,1,4.78-1.44,21.4,21.4,0,0,1,5.35-.17,21,21,0,0,1,4.29.86A17.83,17.83,0,0,1,183.23,48.52Z" style="fill:#5c311e"/><path d="M205.07,14.1a13.09,13.09,0,0,1-7.25,5.18c2.38-2.53,4.65-6,4.26-9.53a.26.26,0,0,0-.36-.21,6.6,6.6,0,0,0-1.28,1c-2.17,2-5.73,1.93-8.34,1-4.59-1.66-8.35-4.89-12.47-7.41A26.24,26.24,0,0,0,164.82,0a27.79,27.79,0,0,0-8.34,1.71c-6.56,2.42-14.37,7.1-16.11,14.47-.07.3-.2,1.05-.32,2-.27,2.25-.47,5.65.37,7.17.11.19.66,1,1.45,1.94a41.37,41.37,0,0,0,3.83,4.18,7.86,7.86,0,0,0,1.9,1.37c9.69,4.19,21.15,5.42,29.71,3.07a46.13,46.13,0,0,0,7-2.56,50.31,50.31,0,0,0,5.14-2.68c1.06-.62,2.09-1.29,3.1-2a40.67,40.67,0,0,0,10.49-10.2,26.3,26.3,0,0,0,2.46-4.16A.26.26,0,0,0,205.07,14.1Z" style="fill:#242422"/><path d="M148.63,17.41s.62,10-3.54,14.88S140.53,47,140.53,47s-15.26-19.45,2.09-30.78C142.62,16.26,146.09,14.87,148.63,17.41Z" style="fill:#242422"/><path d="M180,25.68a51.12,51.12,0,0,1,8.56,22.9s9.94-14.81.46-27.3C189,21.28,178.61,16.89,180,25.68Z" style="fill:#242422"/></g></g></svg>