<svg id="Layer_1" data-name="Layer 1" xmlns="http://www.w3.org/2000/svg" viewBox="0 0 374.84 483.14"><title>contact_me</title><path d="M157,19.26c-17.43-10.13-39.94-1.15-55.6,11.54S72.61,60.06,54,67.84c-11.84,5-25.4,6.1-35.89,13.5C1,93.4-1.95,117.67,1,138.37s10.22,41.24,7.66,62c-1.87,15.21-9,30.44-5.14,45.28,5.4,20.8,29.31,30.69,41,48.74,8.36,13,10.64,30.44,23.1,39.53,14.46,10.54,34.55,4.39,52.38,6,22,2,40.73,16.07,61.6,23.15,33.31,11.29,72.46,3.12,98.46-20.56,13.24-12.05,23-27.48,36-39.77,11.15-10.53,24.66-18.74,33.8-31.06,8.84-11.92,12.8-26.67,16.58-41,5.51-21,11.07-42.79,7-64.1-6.44-34-35.43-58.76-50.53-89.9-5.89-12.14-10.22-26-21.13-33.95C290.22,34.27,274.55,35,261,30.4c-19.45-6.56-34.13-23.9-54-29-18.21-4.68-38.92,2.73-50,17.89" style="fill:#0076ff;opacity:0.2"/><g style="opacity:0.2"><path d="M157,19.26c-17.43-10.13-39.94-1.15-55.6,11.54S72.61,60.06,54,67.84c-11.84,5-25.4,6.1-35.89,13.5C1,93.4-1.95,117.67,1,138.37s10.22,41.24,7.66,62c-1.87,15.21-9,30.44-5.14,45.28,5.4,20.8,29.31,30.69,41,48.74,8.36,13,10.64,30.44,23.1,39.53,14.46,10.54,34.55,4.39,52.38,6,22,2,40.73,16.07,61.6,23.15,33.31,11.29,72.46,3.12,98.46-20.56,13.24-12.05,23-27.48,36-39.77,11.15-10.53,24.66-18.74,33.8-31.06,8.84-11.92,12.8-26.67,16.58-41,5.51-21,11.07-42.79,7-64.1-6.44-34-35.43-58.76-50.53-89.9-5.89-12.14-10.22-26-21.13-33.95C290.22,34.27,274.55,35,261,30.4c-19.45-6.56-34.13-23.9-54-29-18.21-4.68-38.92,2.73-50,17.89" style="fill:#fff"/></g><circle cx="185.55" cy="183.05" r="148.08" style="fill:#764abc;opacity:0.38"/><path d="M141.89,207.55a24.15,24.15,0,1,1-4.11-33.9A24.15,24.15,0,0,1,141.89,207.55Z" style="opacity:0.4"/><path d="M157.93,131.57a14,14,0,1,1-2.39-19.72A14,14,0,0,1,157.93,131.57Z" style="opacity:0.4"/><path d="M227.71,143s3.65,21.84,15.1,36.54c8.56,11,26.47,23.24,26.47,23.24l-10.14,11.12-28-23.09Z" style="fill:#363a68"/><polygon points="212.39 122.6 189.96 122.6 190.69 196.37 220.47 198.38 212.39 122.6" style="fill:#260e0d"/><path d="M237.53,476c12.64,0,12.33,5.19,12.33,5.19h-37s1.84-16,2.12-19.73h8.68C224.64,466.11,227.83,476,237.53,476Z" style="fill:#260e0d"/><path d="M175.72,477.94c11.5,0,13.85-13.94,14.18-16.44h8.31v1.21c0,1.73,2.16,20.43,2.16,20.43h-37S163.08,477.94,175.72,477.94Z" style="fill:#260e0d"/><path d="M179,377.54,167.2,277.7l3.34-29.55h65l.46,26,6.82,101.44s-16.95,84.47-16.66,85.87H213.88c0-.31,3.47-92.62,3.47-92.62l-14-82.23L197.84,373s2.49,77.8,2.53,88.54H188.82C188.85,461.25,179,377.54,179,377.54Z" style="fill:#2f1954"/><path d="M170.1,252l.44-3.88h65l.06,3.4L222,256.19a57.18,57.18,0,0,1-34.22.87Z" style="fill:#0e0e0e"/><path d="M166,142.22c7.06-7.94,23.42-20.61,41.44-17.55L226.32,133l5.54,40.65,5,77.44-67.17.77-6.39-75.38S159,150.16,166,142.22Z" style="fill:#f1a97e"/><path d="M209.78,106.43s.19,15.88,1.71,24c.58,3.13-.85,6.34-3.51,7.49a13.06,13.06,0,0,1-7.8.73c-8.46-1.61-8.74-11.11-8.74-11.11l2.85-29Z" style="fill:#feb19e"/><path d="M194.29,98.54l15.49,7.89s.07,5.86.46,12.28c-4,.2-9.12-2.1-14.51-9-.8-1-1.54-2-2.24-3Z" style="fill:#ff856a"/><path d="M214.63,125.41l5,150.31H250.8l-9.19-68.27-6-41.51S232.67,138,226.32,133A74.81,74.81,0,0,0,214.63,125.41Z" style="fill:#555da2"/><path d="M189.62,124.59l3.28,151.13H159.53S158.28,155.94,162,143.41,189.62,124.59,189.62,124.59Z" style="fill:#555da2"/><polygon points="226.75 131 212.39 122.6 217.03 197.32 224.9 154.94 222.12 153.03 226.75 131" style="fill:#777eb5"/><polygon points="191.19 196.62 189.96 122.6 177.17 128.42 184.14 152.98 182.37 154.36 191.19 196.62" style="fill:#777eb5"/><polygon points="249.86 218.59 296.12 183.22 247.13 178.68 210.08 218.59 249.86 218.59" style="fill:#1e3340"/><path d="M224.09,203.58s-5,1.14-6.88,3.18c-2.37,2.59-8,6.81-10.37,6.81s-12.44,1-12.44,1l-1.69,11.32s37.59-8.79,39.36-10.72-8.82,1.43-8.82.57,12.75-1.83,12.09-4-11.76,2.93-12.74,1.86,13.4-2.88,13.4-5.18-14.32,3.32-14.32,3.32-.27-1.16,3.61-3,7.64-3.38,6.78-4.31S221.3,209.4,220,208Z" style="fill:#fc7575"/><path d="M171.16,140.49s5.47,10.2,4.38,24.9-2.95,37.25.1,44.6,25.47,0,25.47,0v17.39s-32.49,13.48-41.9,9.07-8.51-42.39-8.51-61S165.16,127.13,171.16,140.49Z" style="fill:#777eb5"/><path d="M171.16,140.49c2.7,5.91,4.47,14.67,3.91,23.76-1,13.68-4.2,43.39,1.63,47.9,5.63,3.54,18.35,0,24.41-2.16-6,1.61-22.78,5.57-25-.27-1.86-4.68-1.56-16-1.39-21,.68-21.71,3.28-29.37-1.21-42.62A34,34,0,0,0,171.16,140.49Z" style="fill:#eef1f9"/><path d="M263.48,203.12a15.8,15.8,0,0,1,1.69,3.32c1,2.41-1.79,4.9-2.34,5.42a26.42,26.42,0,0,1-4.09,3,9.63,9.63,0,0,1-3,1.27c-1.66.37-5.36-5.64-4.85-6.22.34-.38.76-.68,1.14-.56s4.52,3.41,4.52,3.41-3.71-4.74-3.29-6.14,1.22-1.24,1.54-.88,5,4.8,5,4.8-3.18-5.65-2.9-6.57,1.56-1.57,3,.71a27,27,0,0,0,3,3.36s-1.79-4.27-1.38-5.64S263.48,203.12,263.48,203.12Z" style="fill:#fc7575"/><path d="M210.77,72.66s4.45,11.15,4.94,22.16c.34,7.53-1.85,15-5.91,18.69-5,4.46-12.32,4.69-16.22.32-4.21-4.73-10-8.15-11.28-12.24A10.88,10.88,0,0,1,175.73,94c-1.29-5.81,4.67-6.06,8.48,2.61,0,0,.56-5.8-2.6-17.27,3.59,1.41,9.88,3.26,11.88-1,0,0,3.73,5.6,9-4.74C202.49,73.61,207,76.87,210.77,72.66Z" style="fill:#feb19e"/><path d="M195.39,84.84a16,16,0,0,0-3.6.37,40.67,40.67,0,0,0-1.15,5,22.89,22.89,0,0,0-.33,3.85,5.29,5.29,0,0,0,4.34,1C194.66,91.62,194.41,87.88,195.39,84.84Z" style="fill:#eaeced;opacity:0.4"/><path d="M210.49,81.92a15.6,15.6,0,0,0-3.52.79,41.42,41.42,0,0,0-.74,5.13,23,23,0,0,0,0,3.9,5.07,5.07,0,0,0,4.37.48C210.31,88.8,209.77,85.07,210.49,81.92Z" style="fill:#eaeced;opacity:0.4"/><path d="M214.6,88.13c.45-4.5-.2-6.27-.28-6.46l-.13-.34-.3-.08a12.21,12.21,0,0,0-10.62,2.32A10.53,10.53,0,0,0,201.8,85l0-.13-2,.44,0-.11-.31-.13a12.55,12.55,0,0,0-2-.73,12.36,12.36,0,0,0-10.7,2.18l-.24.2v.36c0,.21.07,2.1,2.19,6.06a5.3,5.3,0,0,0,3.38,2.76,7.13,7.13,0,0,0,3.53,0c3.85-1.21,4.15-3.68,4.34-5.31a2.51,2.51,0,0,1,0-.27,16.31,16.31,0,0,0,.1-2.87,2,2,0,0,1,1.78-.26,15.25,15.25,0,0,0,1.29,2.92l.13.23c.8,1.42,2,3.57,6,3.12A7.17,7.17,0,0,0,212.54,92,5.51,5.51,0,0,0,214.6,88.13Zm-19.37,6.35a6.15,6.15,0,0,1-3,0,4,4,0,0,1-2.57-2.07,17.21,17.21,0,0,1-1.93-4.87,11.44,11.44,0,0,1,9.5-1.76,10.67,10.67,0,0,1,1.5.52,12.28,12.28,0,0,1,0,3.7l0,.28C198.58,91.79,198.37,93.49,195.23,94.48Zm16.6-3.68A6.41,6.41,0,0,1,209.08,92c-3.26.36-4.09-1.13-4.83-2.44-.05-.08-.09-.17-.14-.24a12.28,12.28,0,0,1-1.36-3.42,12,12,0,0,1,1.18-1.09,11.45,11.45,0,0,1,9.41-2.23,17.55,17.55,0,0,1,.07,5.26A4.18,4.18,0,0,1,211.83,90.8Z" style="fill:#5c311e"/><path d="M222.6,58.53a10.42,10.42,0,0,1-4.84,4.84c1.5-2.2,2.8-5,2.11-7.64a.2.2,0,0,0-.3-.1,4.71,4.71,0,0,0-.84.94c-1.4,1.78-4.07,2.22-6.13,1.89-3.63-.58-6.81-2.44-10.18-3.72a19.73,19.73,0,0,0-11.56-1,22.11,22.11,0,0,0-6.05,2.43c-4.63,2.71-9.94,7.26-10.41,13-.06.79-.05,5.34,1.08,6.76.3.39,4.36,4.11,6.23,4.53,7.73,1.74,16.45,1,22.6-1.89,6.89-3.29,14.06-9.7,17.28-16.48A21,21,0,0,0,223,58.65.19.19,0,0,0,222.6,58.53Z" style="fill:#242422"/><path d="M181.32,68.9s4.15,8.19,2.67,13.88,1.83,14.16,1.83,14.16-19.08-10.48-9.64-26.7C176.18,70.24,178.39,67.74,181.32,68.9Z" style="fill:#242422"/></svg>