<svg xmlns="http://www.w3.org/2000/svg" viewBox="0 0 345.35 290.42"><title>me_single2</title><g style="isolation:isolate"><g id="Layer_1" data-name="Layer 1"><path d="M2.16,260c.09-3.52.22-7,.42-10.58Z" transform="translate(-2.16 -12.11)" style="fill:#0076ff;fill-opacity:0.189999997615814"/><path d="M332,240.3c-.7,16.71,2,33.47,4.07,50.14.49,4,.94,8.07,1.29,12.09H8.15c-.89-4-1.66-8.06-2.33-12.09a235.7,235.7,0,0,1-3.24-41C5.87,188.61,24.9,127.5,64.28,81.26c41.63-48.94,108-78.5,170.45-66.47s115.4,70.63,112.68,134.87C346.09,180.28,333.29,209.63,332,240.3Z" transform="translate(-2.16 -12.11)" style="fill:#0076ff;fill-opacity:0.189999997615814"/><path d="M270.22,270.69v0a25.32,25.32,0,0,1-2.29,6c-9,16.43-47.92,13.73-47.92,13.73H131.16c-36.76,0-51.5-.91-55-12.39a16,16,0,0,1-.48-2c-2.5-13.34,9.92-56.75,32.86-86.52,11.74-15.22,23.87-23.24,34.68-27.43a69.78,69.78,0,0,1,25.85-4.52c11.27,0,20.37.84,28.1,2.64,20.72,4.86,31.57,16.58,47.84,37.37C264.88,223,274.66,252.86,270.22,270.69Z" transform="translate(-2.16 -12.11)" style="fill:#0a3d62"/><path d="M114,260.15C123.59,245,126.62,224,129.3,202.6L137.68,246h72.57l13.33-43.42c-.31,20.29,2.47,40.19,12.1,59.23C235.68,261.83,188.22,315.53,114,260.15Z" transform="translate(-2.16 -12.11)" style="fill:#1f395e;opacity:0.22;mix-blend-mode:multiply"/><path d="M270.22,270.69s0,0,0,0a25.32,25.32,0,0,1-2.29,6c-9,16.43-47.92,13.73-47.92,13.73H193.65L197,268.12s46.74-21.64,63.49-14.88C268.67,256.53,271.18,263.38,270.22,270.69Z" transform="translate(-2.16 -12.11)" style="fill:#3c6382"/><path d="M216.29,290.44H131.16a3.73,3.73,0,0,1-3.72-3.72h0a3.72,3.72,0,0,1,3.72-3.72h85.13a3.71,3.71,0,0,1,3.72,3.72h0A3.72,3.72,0,0,1,216.29,290.44Z" transform="translate(-2.16 -12.11)" style="fill:#fff"/><path d="M226.6,226.44l-.32,1.94h0L217.46,283H130.7L122,226.4a4.59,4.59,0,0,1,4.52-5.28h95.59A4.58,4.58,0,0,1,226.6,226.44Z" transform="translate(-2.16 -12.11)" style="fill:#6a89cc"/><path d="M226.28,228.39,217.46,283h-86.3L160.41,280A78.66,78.66,0,0,0,226.28,228.39Z" transform="translate(-2.16 -12.11)" style="fill:#4a69bd"/><path d="M197.15,160.27c-.79,10.44-5.1,29.46-26.13,29.46-22.16,0-26.85-18.74-27.82-27.58a69.78,69.78,0,0,1,25.85-4.52C180.32,157.63,189.42,158.47,197.15,160.27Z" transform="translate(-2.16 -12.11)" style="fill:#3c6382"/><path d="M170.67,181.82h-.58a20.39,20.39,0,0,1-8.37-1.69A15.11,15.11,0,0,1,153.06,166c0-.62,0-1.21,0-1.81,0-5-.29-9.1-.29-9.1v-2.23l31.26-1.4a72.43,72.43,0,0,0,1.24,11.71c0,.05,0,.09,0,.15A15.5,15.5,0,0,1,170.67,181.82Z" transform="translate(-2.16 -12.11)" style="fill:#feb19e"/><path d="M185.29,163.14c-13,15.29-26.4,6.36-32.21,1,0-5-.29-9.1-.29-9.1v-2.23l31.26-1.4A72.43,72.43,0,0,0,185.29,163.14Z" transform="translate(-2.16 -12.11)" style="fill:#ff856a"/><path d="M144.94,137.18s2.1,10.37,7.21,18.43c2.07,3.25,11.54,6.78,17.1,6.78,5,0,12.57-3,14.87-7.87,4.13-8.67,5.55-19.73,5.55-19.73l4.76-14.95-6.18-9.76-49.5,2.17Z" transform="translate(-2.16 -12.11)" style="fill:#feb19e"/><path d="M141.53,122.3s-4.25.82-3.52,6,5.16,11.34,8.75,8.07Z" transform="translate(-2.16 -12.11)" style="fill:#feb19e"/><path d="M193,120.16s4.31.2,4.26,5.38-3.64,12-7.63,9.25Z" transform="translate(-2.16 -12.11)" style="fill:#feb19e"/><path d="M337.38,302.53H8.15c-.89-4-1.66-8.06-2.33-12.09H336.09C336.58,294.47,337,298.51,337.38,302.53Z" transform="translate(-2.16 -12.11)" style="fill:#c1c8d3"/><path d="M159.6,126a28.35,28.35,0,0,0-5.38-.29,43.92,43.92,0,0,0-2.95,5.7,24.1,24.1,0,0,0-1.45,4.52A8.9,8.9,0,0,0,156,138C156.84,133.93,157.41,129.41,159.6,126Z" transform="translate(-2.16 -12.11)" style="fill:#eaeced;opacity:0.4"/><path d="M182.57,125.57a29.61,29.61,0,0,0-5.38.23,43.17,43.17,0,0,0-2.38,6,23.39,23.39,0,0,0-1,4.63,8.92,8.92,0,0,0,6.32,1.46C180.59,133.73,180.72,129.18,182.57,125.57Z" transform="translate(-2.16 -12.11)" style="fill:#eaeced;opacity:0.4"/><path d="M188.28,126.05l-.12-.42-.41-.17a22.15,22.15,0,0,0-16.22.62,17.27,17.27,0,0,0-2.53,1.41v-.16l-3,.12-.05-.13-.42-.22a22.1,22.1,0,0,0-2.75-1.28,22.37,22.37,0,0,0-16.3.43l-.4.19-.09.44c-.05.24-.43,2.51,1.7,7.65a7,7,0,0,0,4.28,4,12.92,12.92,0,0,0,5.2.71c6-.66,7-3.54,7.73-5.45,0-.1.08-.21.11-.31a15.68,15.68,0,0,0,.88-3.4,3.67,3.67,0,0,1,2.69,0,14.8,14.8,0,0,0,1.16,3.74c0,.09.09.19.13.3.82,1.86,2.06,4.66,8.07,4.94a13,13,0,0,0,5.14-1,7.07,7.07,0,0,0,4-4.24C188.86,128.54,188.34,126.29,188.28,126.05Zm-25,6.78-.12.32c-.64,1.76-1.37,3.75-6.24,4.29a7.91,7.91,0,0,1-.88,0,10.73,10.73,0,0,1-3.52-.61,5.72,5.72,0,0,1-2.54-1.78,4.62,4.62,0,0,1-.72-1.21,17.5,17.5,0,0,1-1.62-6.19,21.28,21.28,0,0,1,6.18-1.34h0a20.35,20.35,0,0,1,5.34.33h0a18.74,18.74,0,0,1,2.9.83,17.59,17.59,0,0,1,2.08.93A12.39,12.39,0,0,1,163.32,132.83Zm22.07.4a5.37,5.37,0,0,1-3.07,3.19,9.23,9.23,0,0,1-2.11.65,10.59,10.59,0,0,1-2.24.23,9.42,9.42,0,0,1-4.16-1,5.4,5.4,0,0,1-2.34-2.93c-.05-.11-.1-.21-.14-.32a12.42,12.42,0,0,1-1.15-4.34,18.41,18.41,0,0,1,2-1.06,18.93,18.93,0,0,1,4.78-1.44,21.4,21.4,0,0,1,5.35-.17,21,21,0,0,1,4.29.86A17.83,17.83,0,0,1,185.39,133.23Z" transform="translate(-2.16 -12.11)" style="fill:#5c311e"/><path d="M207.23,98.81A13.09,13.09,0,0,1,200,104c2.38-2.53,4.65-6,4.26-9.53a.26.26,0,0,0-.36-.21,6.6,6.6,0,0,0-1.28,1c-2.17,2-5.73,1.93-8.34,1-4.59-1.66-8.35-4.89-12.47-7.41A26.24,26.24,0,0,0,167,84.73a27.79,27.79,0,0,0-8.34,1.71c-6.56,2.42-14.37,7.1-16.11,14.47-.07.3-.2,1-.32,2-.27,2.25-.47,5.65.37,7.17.11.19.66,1,1.45,1.94a41.37,41.37,0,0,0,3.83,4.18,7.86,7.86,0,0,0,1.9,1.37c9.69,4.19,21.15,5.42,29.71,3.07a46.13,46.13,0,0,0,7-2.56,50.31,50.31,0,0,0,5.14-2.68c1.06-.62,2.09-1.29,3.1-2a40.67,40.67,0,0,0,10.49-10.2,26.3,26.3,0,0,0,2.46-4.16A.26.26,0,0,0,207.23,98.81Z" transform="translate(-2.16 -12.11)" style="fill:#242422"/><path d="M150.79,102.12s.62,10-3.54,14.88-4.56,14.76-4.56,14.76S127.43,112.3,144.78,101C144.78,101,148.25,99.58,150.79,102.12Z" transform="translate(-2.16 -12.11)" style="fill:#242422"/><path d="M182.16,110.39a51.12,51.12,0,0,1,8.56,22.9s9.94-14.8.46-27.29C191.18,106,180.77,101.6,182.16,110.39Z" transform="translate(-2.16 -12.11)" style="fill:#242422"/></g></g></svg>