<svg xmlns="http://www.w3.org/2000/svg"  width="935.26" height="480.13" xmlns:xlink="http://www.w3.org/1999/xlink" viewBox="0 0 935.26 480.13"><defs><linearGradient id="Degradado_sin_nombre_6" x1="152.42" y1="243.57" x2="152.42" y2="243.57" gradientUnits="userSpaceOnUse"><stop offset="0" stop-color="#dea4d6"/><stop offset="0.42" stop-color="#dca4d6"/><stop offset="0.57" stop-color="#d5a3d8"/><stop offset="0.68" stop-color="#caa2db"/><stop offset="0.77" stop-color="#b99fe0"/><stop offset="0.84" stop-color="#a39de5"/><stop offset="0.91" stop-color="#879aec"/><stop offset="0.96" stop-color="#6896f4"/><stop offset="1" stop-color="#5193fa"/></linearGradient><clipPath id="clip-path" transform="translate(0)"><rect x="23" y="97" width="58" height="58" style="fill:none"/></clipPath><clipPath id="clip-path-2" transform="translate(0)"><rect y="174" width="58" height="66" style="fill:none"/></clipPath><linearGradient id="linear-gradient" x1="94.08" y1="-93.74" x2="714.5" y2="649.24" gradientUnits="userSpaceOnUse"><stop offset="0" stop-color="#dea4d6"/><stop offset="0" stop-color="#dda4d6"/><stop offset="0.1" stop-color="#b89fe0"/><stop offset="0.2" stop-color="#989ce8"/><stop offset="0.3" stop-color="#7e98ee"/><stop offset="0.42" stop-color="#6a96f4"/><stop offset="0.56" stop-color="#5c94f7"/><stop offset="0.72" stop-color="#5493f9"/><stop offset="1" stop-color="#5193fa"/></linearGradient><linearGradient id="linear-gradient-2" x1="560.83" y1="448.44" x2="588.02" y2="448.44" gradientUnits="userSpaceOnUse"><stop offset="0" stop-color="#1f3a65"/><stop offset="1" stop-color="#294a7a"/></linearGradient><linearGradient id="linear-gradient-3" x1="603.5" y1="355.15" x2="569.18" y2="423.27" gradientUnits="userSpaceOnUse"><stop offset="0" stop-color="#e2e8f7"/><stop offset="1" stop-color="#fff"/></linearGradient></defs><title>p_cover4</title><g style="isolation:isolate"><g id="Layer_1" data-name="Layer 1"><path d="M152.42,243.57" transform="translate(0)" style="fill:url(#Degradado_sin_nombre_6)"/><path d="M761.26,111.48l28.39-10.12,29.13,10-4.71,37.54-24.42,13.51-24-13.34Z" transform="translate(0)" style="fill:#e23237;fill-rule:evenodd"/><path d="M818.78,111.31l-29.13-10v61l24.42-13.51Z" transform="translate(0)" style="fill:#b52e31;fill-rule:evenodd"/><path d="M789.73,121.12l6,12.5H784.5Zm0-12.63L772,147.84l6.6-.14,3.57-8.89H798l3.88,9,6.29.13Z" transform="translate(0)" style="fill:#fff;fill-rule:evenodd"/><path d="M858,199.64a3.9,3.9,0,0,0,3.88,3.74H862a3.88,3.88,0,0,0-.14-7.76h-.13a1.19,1.19,0,0,0-.49.07,25.36,25.36,0,0,1-3.6-15.38,18.57,18.57,0,0,1,4.09-10.74c2-2.57,5.88-3.81,8.52-3.88,7.34-.14,10.46,9,10.67,12.68.9.2,2.42.69,3.46,1-.83-11.23-7.76-17-14.41-17-6.24,0-12,4.5-14.27,11.16-3.19,8.87-1.11,17.39,2.77,24.11A3.16,3.16,0,0,0,858,199.64Zm35.2-9.77c-5.27-6.17-13-9.56-21.89-9.56h-1.11a3.81,3.81,0,0,0-3.4-2.08h-.14a3.88,3.88,0,0,0,.14,7.76h.14a3.91,3.91,0,0,0,3.4-2.36h1.24a26.4,26.4,0,0,1,14.76,4.51,18.48,18.48,0,0,1,7.34,8.87,9.57,9.57,0,0,1-.14,8.17,10.17,10.17,0,0,1-9.49,5.68,17.83,17.83,0,0,1-6.79-1.45c-.76.69-2.14,1.8-3.11,2.49a21.29,21.29,0,0,0,8.93,2.15c6.65,0,11.57-3.67,13.44-7.34C898.51,202.69,898.37,195.76,893.18,189.87ZM881,198.46a3.89,3.89,0,0,0-.42-7.76h-.14a3.87,3.87,0,0,0-3.74,4,3.93,3.93,0,0,0,1.11,2.56c-2.36,4.65-6,8-11.36,10.88a18.73,18.73,0,0,1-11.3,2.15,9.63,9.63,0,0,1-7.06-4.09,10.17,10.17,0,0,1-.56-10.74,16.43,16.43,0,0,1,4.71-5.54c-.27-.9-.69-2.43-.9-3.54-10,7.28-9,17.12-6,21.76,2.28,3.47,6.92,5.61,12,5.61a16.88,16.88,0,0,0,4.16-.48A26.62,26.62,0,0,0,881,198.46Z" transform="translate(0)" style="fill:#764abc"/><path d="M890.56,276.94l2.48-6.28h7.17l-3.4-9.53,4.26-10.77,12.19,32.38h-9l-2.08-5.8Z" transform="translate(0)" style="fill:#3d3d3d"/><path d="M882.88,282.74l13.06-32.38h-8.66l-8.93,20.93L872,250.36h-6.65l-6.82,20.93-4.81-9.54-4.35,13.41,4.42,7.58h8.52L868.47,264l5.87,18.76Z" transform="translate(0)" style="fill:#5a0fc8"/><path d="M842.54,257.81a4.24,4.24,0,0,1,1.15,3.12,4.55,4.55,0,0,1-1,3.13c-.75.86-2.12,1.28-4.12,1.28h-3.08v-8.7h3.1C840.45,256.64,841.76,257,842.54,257.81Zm-7.06,13.82h5.33a15.68,15.68,0,0,0,4.31-.54l1.38-4.25L850.36,255a9.23,9.23,0,0,0-1-1.32q-3-3.28-8.68-3.29H827.26v32.38h8.22Z" transform="translate(0)" style="fill:#3d3d3d"/><path d="M838.26,54.36h-11l27.5,47,27.5-47h-21l-6.47,10.89-6.32-10.89Z" transform="translate(0)" style="fill:#41b883"/><path d="M882.26,54.36l-27.5,47-27.5-47h11l16.5,28.18L871.4,54.36Z" transform="translate(0)" style="fill:#41b883"/><path d="M871.4,54.36,854.76,82.67l-16.5-28.31h10.18l6.32,10.89,6.47-10.89Z" transform="translate(0)" style="fill:#35495e"/><path d="M755.2,31.88a5.44,5.44,0,1,0,5.52,5.44A5.49,5.49,0,0,0,755.2,31.88Zm0,0a5.44,5.44,0,1,0,5.52,5.44A5.49,5.49,0,0,0,755.2,31.88Zm0,0a5.44,5.44,0,1,0,5.52,5.44A5.49,5.49,0,0,0,755.2,31.88Zm0,0a5.44,5.44,0,1,0,5.52,5.44A5.49,5.49,0,0,0,755.2,31.88Zm0,0a5.44,5.44,0,1,0,5.52,5.44A5.49,5.49,0,0,0,755.2,31.88Zm0,0a5.44,5.44,0,1,0,5.52,5.44A5.49,5.49,0,0,0,755.2,31.88Zm0,0a5.44,5.44,0,1,0,5.52,5.44A5.49,5.49,0,0,0,755.2,31.88Zm0,0a5.44,5.44,0,1,0,5.52,5.44A5.49,5.49,0,0,0,755.2,31.88Zm20.18-4c-.74-.25-1.5-.48-2.29-.7.17-.69.33-1.36.46-2,1.35-6.83.4-12.29-2.82-14.12s-9,.14-14.53,5l-1,.93c-.51-.48-1-.95-1.53-1.39C748.31,11,743,9.13,739.82,11s-4.35,7.71-2.84,14.92c.09.43.19.88.3,1.33-.68.2-1.34.4-2,.62-6.68,2.27-11,5.81-11,9.48,0,3.83,4.61,7.57,11.69,9.88l1.15.35c-.14.56-.26,1.1-.37,1.63-1.4,7-.32,12.69,3,14.58s8.4,0,13.65-4.42c.55-.47,1.11-1,1.67-1.51.43.42.86.81,1.29,1.18,5.42,4.67,11,6.61,14.3,4.72s4.22-7.15,2.93-13.86c-.13-.71-.3-1.44-.48-2.18.57-.16,1.13-.33,1.67-.51,6.81-2.3,11.29-6.08,11.29-9.86S781.92,30.14,775.38,27.89ZM758,18c4.82-4.22,9.39-5.9,11.46-4.72s2.71,5.52,1.55,11.37c-.13.61-.27,1.24-.43,1.87a66.59,66.59,0,0,0-8.24-1.26A62.32,62.32,0,0,0,757,18.86Q757.49,18.43,758,18ZM744.29,43.58c.63,1.06,1.26,2.09,1.9,3.1-2-.25-4-.57-5.76-1a54.62,54.62,0,0,1,2.07-5.36C743.07,41.42,743.66,42.5,744.29,43.58Zm-3.74-14.5a56.78,56.78,0,0,1,5.63-1c-.64,1-1.26,2-1.88,3.05s-1.21,2.12-1.77,3.16A54.63,54.63,0,0,1,740.55,29.08Zm3.38,8.27q1.2-2.41,2.66-4.89c1-1.63,1.95-3.2,3-4.69,1.83-.13,3.72-.21,5.63-.21s3.79.07,5.63.21q1.56,2.25,3,4.7c1,1.63,1.83,3.28,2.63,4.91q-1.2,2.46-2.63,4.91c-1,1.64-2,3.22-3,4.72-1.8.12-3.68.18-5.6.18s-3.82-.07-5.66-.2q-1.5-2.24-3-4.71C745.62,40.63,744.73,39,743.93,37.35Zm22.17,6.24c.61-1,1.2-2.09,1.75-3.15a55.06,55.06,0,0,1,2,5.38,55.67,55.67,0,0,1-5.69.9C764.83,45.7,765.47,44.66,766.1,43.59Zm0-12.42c-.61-1-1.24-2.07-1.89-3.07,2,.25,3.84.56,5.6.95-.54,1.71-1.2,3.48-2,5.27Q767,32.75,766.11,31.17ZM755.17,20.72A55.69,55.69,0,0,1,758.84,25c-1.2-.05-2.42-.08-3.64-.08s-2.45,0-3.66.09C752.74,23.47,754,22,755.17,20.72Zm-14-7.5c1.94-1.1,6.2.44,10.76,4.35.47.41,1,.84,1.42,1.29a62,62,0,0,0-5.22,6.42,64.68,64.68,0,0,0-8.26,1.29c-.1-.41-.2-.81-.28-1.21C738.26,19.14,739.07,14.4,741.14,13.22Zm-3.27,31.83-1-.32c-6.11-2-9.88-5-9.88-7.41s3.49-5.08,9.2-7c.6-.2,1.21-.39,1.84-.57a60.69,60.69,0,0,0,3,7.6A60.47,60.47,0,0,0,737.87,45.05ZM751.7,57.36c-4.49,3.81-8.66,5.26-10.61,4.15-.91-.52-1.65-1.83-2-3.78a21.69,21.69,0,0,1,.3-8c.1-.48.21-1,.33-1.48a62.67,62.67,0,0,0,8.37,1.28A62.26,62.26,0,0,0,753.25,56C752.73,56.46,752.21,56.93,751.7,57.36Zm3.4-3.25q-1.82-2-3.63-4.4c1.23,0,2.47.08,3.73.08s2.43,0,3.62-.07C757.6,51.3,756.35,52.77,755.1,54.11Zm14.26,7.37c-.91.52-2.43.5-4.33-.16a22.59,22.59,0,0,1-6.92-4.27c-.39-.34-.78-.7-1.17-1.07a64.43,64.43,0,0,0,5.3-6.46,63.44,63.44,0,0,0,8.33-1.19c.17.69.32,1.37.45,2C772.12,56.09,771.31,60.37,769.36,61.48Zm11.79-20.54a22.54,22.54,0,0,1-7.21,3.78c-.49.16-1,.32-1.52.47a62.69,62.69,0,0,0-3-7.81,61.79,61.79,0,0,0,3-7.69q1.11.31,2.13.66c5.59,1.92,9,4.75,9,7C783.46,38.36,782.68,39.65,781.15,40.94ZM755.2,42.76a5.44,5.44,0,1,0-5.52-5.44A5.48,5.48,0,0,0,755.2,42.76Zm0-10.88a5.44,5.44,0,1,0,5.52,5.44A5.49,5.49,0,0,0,755.2,31.88Zm0,0a5.44,5.44,0,1,0,5.52,5.44A5.49,5.49,0,0,0,755.2,31.88Zm0,0a5.44,5.44,0,1,0,5.52,5.44A5.49,5.49,0,0,0,755.2,31.88Zm0,0a5.44,5.44,0,1,0,5.52,5.44A5.49,5.49,0,0,0,755.2,31.88Zm0,0a5.44,5.44,0,1,0,5.52,5.44A5.49,5.49,0,0,0,755.2,31.88Zm0,0a5.44,5.44,0,1,0,5.52,5.44A5.49,5.49,0,0,0,755.2,31.88Zm0,0a5.44,5.44,0,1,0,5.52,5.44A5.49,5.49,0,0,0,755.2,31.88Zm0,0a5.44,5.44,0,1,0,5.52,5.44A5.49,5.49,0,0,0,755.2,31.88Z" transform="translate(0)" style="fill:#53c1de"/><path d="M755.2,31.88a5.44,5.44,0,1,0,5.52,5.44A5.49,5.49,0,0,0,755.2,31.88Z" transform="translate(0)" style="fill:#fff"/><path d="M760.72,37.32a5.52,5.52,0,1,1-5.52-5.44A5.48,5.48,0,0,1,760.72,37.32Z" transform="translate(0)" style="fill:#53c1de"/><path d="M913.26,105.36a22,22,0,1,0,22,22A22,22,0,0,0,913.26,105.36ZM896,127.59l17,17A17.27,17.27,0,0,1,896,127.59Zm21.14,16.61-20.71-20.71a17.28,17.28,0,0,1,30.81-6.3l-2.39,2.11A14.11,14.11,0,0,0,900,122.56l18.07,18.06a14.13,14.13,0,0,0,8.89-9.87h-7.49v-3.39h11.07A17.28,17.28,0,0,1,917.13,144.2Z" transform="translate(0)" style="fill:#744c9e"/><path d="M142.77,137.8a.85.85,0,0,1-.74-.42l-6.52-10.79-12.18,3.29a.86.86,0,0,1-1-.42L108.1,102.87a.86.86,0,0,1,.65-1.25l12.1-1.61a.84.84,0,0,1,.85.41l14.62,24.18,17-4.58-5.67-7.93a.86.86,0,0,1,.51-1.33l7.94-1.86a.88.88,0,0,1,.87.3l6.87,8.52a.84.84,0,0,1,.15.79.86.86,0,0,1-.6.57l-7.23,2,6.31,8.83a.84.84,0,0,1,.11.75.85.85,0,0,1-.53.55l-19,6.59A.92.92,0,0,1,142.77,137.8Zm-5.53-11.67,5.91,9.78,17.22-6-6-8.41Zm-27-23,13.33,24.9,11-3-14.08-23.29Zm39.56,9,5.29,7.4,6.58-1.77-5.71-7.08Z" transform="translate(0)" style="fill:#f0543f"/><path d="M96.28,52.49c0-.08,0-.19,0-.37a1.9,1.9,0,0,0,0-.25l-.35,0h-.09a14.89,14.89,0,0,1-3-.2,11.75,11.75,0,0,1-2.72-.78,9.62,9.62,0,0,1-3.44-2.52A3,3,0,0,1,86,46.84a2.17,2.17,0,0,1,.29-1.39,2.25,2.25,0,0,1,1.1-.94,3.86,3.86,0,0,1,2.43-.14c1.33.27,2.17.45,2.7.58a48.61,48.61,0,0,1-5.17-11.82c-1.43-5.14-1.45-9.61.1-11.57a14.29,14.29,0,0,1,8.1-5.12,21,21,0,0,1,10,.42c.49-.09,1-.16,1.52-.22.74-.07,1.47-.12,2.21-.13a13.06,13.06,0,0,1,3.93.51,10.78,10.78,0,0,1,2.42,1C120,16.61,135.86,12.44,135,29.88a67.54,67.54,0,0,1-4.25,16.41,18.31,18.31,0,0,1-2.94,5c-1.51,1.67-3.25,2.4-5.23,1.7a5.1,5.1,0,0,1-1.57-.89,2.57,2.57,0,0,1-.28.29,5.62,5.62,0,0,1-2.32,1.18,10.12,10.12,0,0,1-4.1.21,7.49,7.49,0,0,1-1.91-.56,8.38,8.38,0,0,1,0,.86c0,.44,0,.87,0,1.18,0,1.06-.1,2.11-.22,3.12a12,12,0,0,1-.58,2.77c0,.1-.07.2-.11.31-.63,2-1.81,5.48-7.31,4.31-2.14-.45-4-1-5.57-3.19-1.33-1.87-2.18-4.86-2.31-10.08Z" transform="translate(0)" style="fill:#647891;fill-rule:evenodd"/><path d="M98.49,48.8c.14-2.66-1.19-3.12-2.11-3.39.1-.14.23-.31.38-.49a9.44,9.44,0,0,0,1.55-2.47c.07-.17.29-.56.58-1.07C100.11,39.22,102.5,35,102,32c-.33-2.07-1.93-3.45-5.93-3l0-.12a13.77,13.77,0,0,1,.95-2,14.14,14.14,0,0,1,12.29-7.64c8.16-.13,9.65,7.9,9.92,11.28a8.44,8.44,0,0,0-1.24-.62,10.8,10.8,0,0,0-2.24-.63,5.52,5.52,0,0,0-2.36.12A3.51,3.51,0,0,0,111,32.18c-1.26,5.78-.13,8.27.76,10.21a13.55,13.55,0,0,1,.78,1.94c.15.41.27.8.37,1.15l-.3,0a2.62,2.62,0,0,0-1.58.47,3.14,3.14,0,0,0-1,1.42,4.34,4.34,0,0,0-.15,1.6c0,2.6,0,5.16-.06,7.25a18.31,18.31,0,0,1-.5,4.21,5.17,5.17,0,0,1-1.38,2.12,4,4,0,0,1-3.59.6,6.2,6.2,0,0,1-3.28-1.51,5.6,5.6,0,0,1-1.32-3.1c-.17-1-.42-2.8-.63-4.55-.28-2.15-.52-4.37-.59-5.14Zm19.15,1.27c-2.69-.55-3-.89-3.82-2a10.66,10.66,0,0,0-1-1.12.46.46,0,0,0-.31-.15,1.16,1.16,0,0,0-.63.21,1.57,1.57,0,0,0-.54.75,1.06,1.06,0,0,0,.06,1,4.86,4.86,0,0,0,1.47,1.42,4.91,4.91,0,0,0,1.91.74,7.29,7.29,0,0,0,2.94-.16,3,3,0,0,0,.94-.41,4.4,4.4,0,0,0-1-.29Zm.78-5.06c.22-.19.43-.38.63-.59a7.23,7.23,0,0,0,1.86-4.19,7.67,7.67,0,0,0,0-1.79,27.73,27.73,0,0,1-.14-5.76,5.46,5.46,0,0,0,0-.7c0-.06.2-7.37-4-11.46,3.8-1.25,16.08-4.2,15.4,9.15a63.51,63.51,0,0,1-4,15.46,15.82,15.82,0,0,1-2.44,4.2c-.73.8-1.47,1.19-2.19.94a3.09,3.09,0,0,1-1.26-1c-1.6-1.91-3.1-3.53-3.79-4.26Zm-15-25.94a16.33,16.33,0,0,0-7.59,7.12,14.07,14.07,0,0,0-1,2.23,3.45,3.45,0,0,0-.29,1.45v.07a12.57,12.57,0,0,0,.23,2.67A19.28,19.28,0,0,1,95,34.77a16.19,16.19,0,0,1-.18,2.41c-.27,2.14-.54,4.43.91,6.78l-.07.09a2,2,0,0,1-.18.21A44.93,44.93,0,0,1,90.1,32.31c-1.22-4.32-1.4-7.85-.41-9.12a11.57,11.57,0,0,1,5.93-4,17.09,17.09,0,0,1,7.8-.15ZM119.34,32c0,.21,0,.42,0,.62a29,29,0,0,0,.15,6,6,6,0,0,1,0,1.47A5.76,5.76,0,0,1,118,43.46a5.1,5.1,0,0,1-3,1.65c-.21,0-.42,0-.63,0a12.87,12.87,0,0,0-.43-1.33,18.19,18.19,0,0,0-.81-2c-.8-1.77-1.82-4-.65-9.36a2.16,2.16,0,0,1,1.46-1.78,3.89,3.89,0,0,1,1.73-.07,8.34,8.34,0,0,1,1.91.54,18.44,18.44,0,0,1,1.83.8Zm-4.19-.58a2.85,2.85,0,0,0-1.7.23.7.7,0,0,0-.28.23.63.63,0,0,0-.11.35,1.12,1.12,0,0,0,.46.59,1.38,1.38,0,0,0,1,.23,1.63,1.63,0,0,0,.88-.48,1,1,0,0,0,.33-.68c0-.21-.17-.38-.53-.47Zm-19.21-1c3.23-.4,4.48.48,4.7,1.84.4,2.44-1.84,6.42-3,8.45A11.41,11.41,0,0,0,97,41.92a5.33,5.33,0,0,1-.37.76,9.24,9.24,0,0,1-.42-5.33,19.24,19.24,0,0,0,.19-2.62,17.9,17.9,0,0,0-.26-2.32,13.3,13.3,0,0,1-.21-2Zm-.4,16.2.35.11c.49.14,1.26.35,1.19,2a1.44,1.44,0,0,1-.6.18,7.75,7.75,0,0,1-1.86.1,10.27,10.27,0,0,1-3.37-.72,7.8,7.8,0,0,1-2-1.29C91.08,47.35,93.87,47.87,95.54,46.62Zm1.72-15.23a.86.86,0,0,0,.29.6,1.45,1.45,0,0,0,.84.45,1.3,1.3,0,0,0,.73-.15c.29-.16.51-.38.51-.6a.51.51,0,0,0-.31-.43,2.41,2.41,0,0,0-.79-.24,2.06,2.06,0,0,0-.82,0c-.26.06-.42.18-.44.35ZM94.69,45.63c-.32.31-1.43.78-5.13,0a2.64,2.64,0,0,0-1.55,0,1,1,0,0,0-.45.39.92.92,0,0,0-.13.58,1.6,1.6,0,0,0,.34.83,8.24,8.24,0,0,0,2.89,2.08,11.78,11.78,0,0,0,3.88.84,9.62,9.62,0,0,0,2.21-.11,3,3,0,0,0,.45-.12c.11,1,.29,2.47.47,3.93.23,1.82.48,3.63.65,4.62a7,7,0,0,0,1.7,3.83,7.47,7.47,0,0,0,4,1.91,5.38,5.38,0,0,0,4.8-.89,6.35,6.35,0,0,0,1.77-2.69,18.48,18.48,0,0,0,.61-4.66c.07-1.61.1-3.5.08-5.48a6.42,6.42,0,0,0,3.25,1.56,8.89,8.89,0,0,0,3.52-.18,4.54,4.54,0,0,0,1.7-.85,1.35,1.35,0,0,0,.45-.8,1.07,1.07,0,0,0-.06-.56,1.12,1.12,0,0,0-.33-.45,3.85,3.85,0,0,0-1.89-.77c-2.17-.45-2.37-.69-3-1.47a6.93,6.93,0,0,0-.5-.58v-.1a4,4,0,0,0,.7-.06,6,6,0,0,0,2.1-.69c.59.63,2.17,2.31,3.89,4.37A4.58,4.58,0,0,0,123,51.59c1.35.47,2.59-.08,3.71-1.31a16.91,16.91,0,0,0,2.69-4.6,66.41,66.41,0,0,0,4.14-15.94c.83-16.53-15.49-11.21-18.09-10.25a10.3,10.3,0,0,0-6.12-1.65,15.14,15.14,0,0,0-3.48.43c-.52-.14-1.25-.34-1.28-.36l-.36-.08a18.59,18.59,0,0,0-9,.07,12.77,12.77,0,0,0-6.64,4.45C87.31,24,87.41,28,88.73,32.69a46.68,46.68,0,0,0,6,13Z" transform="translate(0)" style="fill:#fff;fill-rule:evenodd"/><path d="M102.67,214.84V199.47h.83v2.42a2.88,2.88,0,0,0,.27-.34,4.13,4.13,0,0,1,3.77-2.34,4.42,4.42,0,0,1,4.35,2.34,7.47,7.47,0,0,1,.18,6.88,4.67,4.67,0,0,1-5.17,2.5,4.23,4.23,0,0,1-1.94-.68,4.06,4.06,0,0,1-1.39-1.52v6.11Zm.83-9.93.19,1.8a3.8,3.8,0,0,0,3.45,3.5,4,4,0,0,0,2.6-.48,3.93,3.93,0,0,0,1.7-2,6.66,6.66,0,0,0-.15-5.49,3.82,3.82,0,0,0-4-2.23,3.65,3.65,0,0,0-2.11.85,3.7,3.7,0,0,0-1.23,1.91,19.59,19.59,0,0,0-.41,2.16ZM129.83,207a4.49,4.49,0,0,1-4.39,4c-3.49.17-5.13-2.15-5.4-4.83a7.69,7.69,0,0,1,.69-4.25,4.74,4.74,0,0,1,4.94-2.65,4.53,4.53,0,0,1,4,3.45,24.75,24.75,0,0,1,.4,2.56h-9.18c-.17,2.43,1.13,4.38,3,4.85a3.93,3.93,0,0,0,5-2.62c.16-.57.45-.64,1-.49Zm-8.93-2.52h8.21c-.05-2.59-1.66-4.47-3.85-4.49C122.8,199.94,121,201.75,120.9,204.47Zm10.63,2.58h.8a3.23,3.23,0,0,0,1.9,2.78,4.89,4.89,0,0,0,2.16.44,5,5,0,0,0,2.14-.55,1.9,1.9,0,0,0,1.13-1.9,1.8,1.8,0,0,0-.29-1.08,1.88,1.88,0,0,0-.89-.68c-.88-.32-1.82-.51-2.72-.8a19.23,19.23,0,0,1-2.75-1c-1.46-.71-1.55-3.47.1-4.35a5.83,5.83,0,0,1,5.54-.08,2.9,2.9,0,0,1,1.47,3h-.69s-.06-.06-.06-.09c-.08-2.2-1.93-2.89-3.92-2.7a5,5,0,0,0-1.7.52,1.66,1.66,0,0,0-.77.69,1.77,1.77,0,0,0-.22,1,1.73,1.73,0,0,0,.31,1,1.83,1.83,0,0,0,.83.62c.86.32,1.78.52,2.68.77l2.17.57a2.54,2.54,0,0,1,1.24.88,2.62,2.62,0,0,1,.52,1.43,2.73,2.73,0,0,1-1.47,2.83c-1.9,1.07-5,.79-6.41-.57a3.76,3.76,0,0,1-1.1-2.69Zm19.18-4.25H150a2,2,0,0,0-.05-.28,2.48,2.48,0,0,0-2-2.37,5,5,0,0,0-3.18.16,1.91,1.91,0,0,0-1,.68,2,2,0,0,0-.39,1.16,1.77,1.77,0,0,0,1.36,1.79l3.45.89a10.68,10.68,0,0,1,1.1.33,2.85,2.85,0,0,1,1.88,2.59,2.83,2.83,0,0,1-1.74,2.7,6.35,6.35,0,0,1-2.54.56,6.43,6.43,0,0,1-2.56-.51,3.52,3.52,0,0,1-1.61-1.39,3.6,3.6,0,0,1-.53-2.05h.74a4.13,4.13,0,0,0,6.3,2.63,2,2,0,0,0,1.09-1.89,1.73,1.73,0,0,0-.31-1.08,1.81,1.81,0,0,0-.89-.67c-.88-.32-1.82-.5-2.73-.8a19.31,19.31,0,0,1-2.76-1c-1.42-.7-1.53-3.44.08-4.31a5.72,5.72,0,0,1,5.63-.06,2.87,2.87,0,0,1,1.15,1.24,3,3,0,0,1,.28,1.67Zm-49.41,7.89a1.35,1.35,0,0,1-.93,0,1.37,1.37,0,0,1-.69-.61L96.75,206l-.42-.57-3.41,4.63a1.25,1.25,0,0,1-.65.59,1.21,1.21,0,0,1-.88,0l4.38-5.88-4.08-5.32a1.36,1.36,0,0,1,1.62.57l3,4.11,3.06-4.09a1.2,1.2,0,0,1,1.52-.57l-1.58,2.1-2.15,2.79a.62.62,0,0,0-.14.19.59.59,0,0,0,0,.23.69.69,0,0,0,0,.24.62.62,0,0,0,.14.19l4.09,5.45Zm18.62-11.26v.8a4,4,0,0,0-1.69.24,4.14,4.14,0,0,0-1.45.91,4.11,4.11,0,0,0-1.24,3.1v6.24h-.82V199.48h.8v2.3a4.78,4.78,0,0,1,4.4-2.35Zm-39,5.3.36-1.77A4.91,4.91,0,0,1,89,200.18c1.61,1.27,2,3.06,1.93,5.08H81.84c-.15,3.61,2.45,5.79,5.78,4.67a3.44,3.44,0,0,0,2.2-2.44c.17-.57.46-.67,1-.5a4.71,4.71,0,0,1-.72,1.94,4.56,4.56,0,0,1-1.48,1.42,5.36,5.36,0,0,1-6.22-.79A5.54,5.54,0,0,1,81,206.28a2.14,2.14,0,0,0-.12-.57v-1Zm1-.25h8.21c0-2.61-1.71-4.47-3.91-4.49-2.45,0-4.2,1.79-4.31,4.48Z" transform="translate(0)"/><path d="M68.33,268a3.88,3.88,0,0,0-1.21.21,3.39,3.39,0,0,1,1.44,2c0,.11,0,.19.06.29a1.33,1.33,0,0,1,0,.28c.07,1.34-.35,1.51-.65,2.31a3.23,3.23,0,0,0,.22,3,1.93,1.93,0,0,0,.19.34c-.59-3.87,2.68-4.45,3.28-5.66,0-1.06-.84-1.76-1.53-2.25A3.44,3.44,0,0,0,68.33,268Zm4.93.87a1.78,1.78,0,0,0,0,.45c0,.12,0,.27,0,.39s-.06.25-.1.37a2.72,2.72,0,0,1-.13.37l-.17.35-.12.18-.1.14a3.55,3.55,0,0,1-.23.31,1.79,1.79,0,0,1-.28.27v0a3.7,3.7,0,0,1-.29.24c-.33.25-.7.43-1,.66a2.49,2.49,0,0,0-.31.23,2.31,2.31,0,0,0-.29.24,3.76,3.76,0,0,0-.28.29,3.65,3.65,0,0,0-.24.31c-.07.11-.15.21-.21.32l-.17.35a3,3,0,0,0-.13.35c0,.14-.07.27-.1.39s0,.13,0,.2a1.13,1.13,0,0,1,0,.18c0,.12,0,.26,0,.38a2.62,2.62,0,0,0,0,.28,1.81,1.81,0,0,0,0,.38c0,.12,0,.25.08.37l.12.36a2.25,2.25,0,0,0,.11.22l-3.56-1.36c-.61-.17-1.2-.32-1.8-.46l-1-.23a26.6,26.6,0,0,0-2.82-.41l-.08,0c-.92-.09-1.84-.14-2.77-.14-.68,0-1.36,0-2,.08a27.29,27.29,0,0,0-2.83.34c-.24,0-.47.07-.7.12-.48.09-.95.2-1.4.3l-.69.19c-.24.09-.45.2-.67.29l-.51.23s-.06,0-.08,0l-.43.21-.11.05-.48.24-.31.16-.14.07-.4.23-.38.23-.31.22s0,0,0,0l-.3.21,0,0-.23.19-.09.06-.24.19s0,.05-.06.07l-.28.26,0,0c-.09.07-.18.17-.28.26s0,0,0,0l-.23.24-.11.09a3.45,3.45,0,0,1-.26.28s-.05.05-.06.08l-.36.36,0,.05a8,8,0,0,1-.79.75,10.51,10.51,0,0,1-.86.67c-.31.21-.61.4-.93.58a9.8,9.8,0,0,1-1,.46c-.33.14-.67.26-1,.37a15.39,15.39,0,0,1-1.89.44,2.47,2.47,0,0,0-.38.05l-.39.09-.37.14a2.11,2.11,0,0,0-.38.17c-.1.07-.23.13-.34.21a3.88,3.88,0,0,0-.31.26,2.7,2.7,0,0,0-.31.28,3.73,3.73,0,0,0-.26.3,3.5,3.5,0,0,0-.23.35,2.56,2.56,0,0,0-.22.35c-.06.14-.12.27-.17.4s-.09.26-.14.4-.06.25-.08.37v0c0,.14,0,.32,0,.42s0,.2,0,.3a.68.68,0,0,0,0,.2,1.24,1.24,0,0,0,.06.29,1.62,1.62,0,0,0,.11.28h0a1.4,1.4,0,0,0,.17.28,2.34,2.34,0,0,0,.2.27l.26.25a1.76,1.76,0,0,0,.3.24,3.72,3.72,0,0,0,.94.68l.25.12h0a.22.22,0,0,0,0,.08c0,.12.05.24.08.37a2.53,2.53,0,0,0,.12.36c0,.1.08.19.13.28l0,.08c.06.12.13.23.19.33l.23.32c.08.09.17.2.26.29a3.73,3.73,0,0,0,.3.26,0,0,0,0,0,0,0,2.55,2.55,0,0,0,.28.21,2.33,2.33,0,0,0,.34.2,2,2,0,0,0,.36.17,1.42,1.42,0,0,0,.31.11l.06,0,.2,0a6.1,6.1,0,0,0,.06,1.89c.14.3.82-.63,1.5-1.7a9.51,9.51,0,0,0,0,2.66c.17.38,1.1-.81,1.91-2.13a17.87,17.87,0,0,1,22.06,15.57,3,3,0,0,0-3.2-2.34,8,8,0,0,1-2.53,3.49,9.85,9.85,0,0,0-.15-3.06A9.87,9.87,0,0,1,56,311.72a4.34,4.34,0,0,1-3.72-1.65c-.06-.05-.08-.14-.13-.2s-.09-.22-.12-.32a1,1,0,0,1-.09-.33,1.72,1.72,0,0,1,0-.33v-.23a3,3,0,0,1,.08-.32,1.73,1.73,0,0,1,.11-.32,3.3,3.3,0,0,1,.18-.32c.27-.74.27-1.34-.21-1.69a1.68,1.68,0,0,0-.3-.15l-.2-.06-.12-.05-.33-.08a1.24,1.24,0,0,0-.33,0,1.87,1.87,0,0,0-.34,0h-.23a1.27,1.27,0,0,0-.34.05,3,3,0,0,0-.32.06,2.13,2.13,0,0,0-.33.11L49,306l-.29.15c-3.61,2.32-1.46,7.77,1,9.34a7.89,7.89,0,0,0-2.14.57l0,0a14.59,14.59,0,0,0,2.1,1c1,.32,2,.61,2.51.73v0a15,15,0,0,0,3.9.27,14.65,14.65,0,0,0,13.51-12.42l.09.4c0,.27.11.56.14.86h0a3.38,3.38,0,0,1,.07.4v.06c0,.14,0,.28,0,.4s0,.33,0,.5v.25c0,.07,0,.16,0,.24s0,.18,0,.28v.21c0,.11,0,.2,0,.31a1.48,1.48,0,0,1,0,.2c0,.1,0,.21,0,.33a.66.66,0,0,0,0,.14c0,.12,0,.23,0,.35a.34.34,0,0,1,0,.14c0,.15,0,.29-.06.44v0h0l-.09.43v.05l-.09.41s0,.05,0,.06a3.25,3.25,0,0,1-.11.42v0c0,.15-.09.29-.12.43l0,0c0,.15-.09.31-.14.46s-.1.29-.17.44-.11.31-.17.45l-.18.44h0a4.14,4.14,0,0,1-.2.43l0,.1a.13.13,0,0,1,0,.05,14.5,14.5,0,0,1-4.35,5.14c-.13.08-.25.17-.37.26l-.11.08-.34.23,0,.09h0l.65-.09h0c.41-.06.81-.14,1.21-.22a2.17,2.17,0,0,0,.35-.07l.21,0,.33-.06.28-.08a28.75,28.75,0,0,0,4.49-1.47A24.79,24.79,0,0,1,61.08,327a25.58,25.58,0,0,0,5.28-.9A24.68,24.68,0,0,0,81,314.55a24.22,24.22,0,0,1-4.16,9.83A24.08,24.08,0,0,0,87.5,308a24.4,24.4,0,0,1,.45,7.38c11.18-15.41.93-31.38-3.37-35.58,0,0,0,0,0-.08v0l0,0a4.93,4.93,0,0,1,0,.55c0,.36-.09.69-.15,1s-.18.67-.27,1-.23.66-.37,1-.3.62-.46.93a9.9,9.9,0,0,1-.56.87c-.2.29-.42.57-.64.83a10.52,10.52,0,0,1-.73.76,5.32,5.32,0,0,1-.45.38l-.35.31c-.28.21-.56.41-.87.6s-.6.36-.91.52l-1,.42a9.16,9.16,0,0,1-1,.33c-.34.09-.7.17-1,.23s-.71.09-1,.12l-.74,0c-.36,0-.72,0-1.06-.06a9.15,9.15,0,0,1-1-.15c-.36-.07-.7-.16-1-.26h0c.34,0,.68-.07,1-.13s.7-.14,1-.23.68-.2,1-.32a7.85,7.85,0,0,0,1-.43,10.36,10.36,0,0,0,.93-.5c.29-.2.59-.4.87-.61s.54-.45.79-.69a10.36,10.36,0,0,0,.73-.75c.23-.28.44-.55.65-.83,0,0,.06-.1.09-.15.16-.25.31-.49.45-.73a9.06,9.06,0,0,0,.46-.94,10.47,10.47,0,0,0,.38-1c.1-.32.18-.65.26-1s.12-.69.15-1a9.24,9.24,0,0,0,.07-1c0-.24,0-.48,0-.73s-.08-.69-.13-1-.14-.68-.23-1-.22-.66-.34-1-.28-.64-.44-.95-.34-.61-.52-.9-.41-.57-.62-.84l-.71-.78-.41-.38a25.9,25.9,0,0,0-2.15-1.5l-.31-.16a6,6,0,0,0-1.47-.64Z" transform="translate(0)" style="fill:#e0234e"/><g style="clip-path:url(#clip-path)"><path d="M44.7,137.45H38.44l10-25.94h6.92l10,25.94H59.09l-1.64-4.4H48l1.71-4.86h6.22l-4-11.16ZM24.06,118.24a1.51,1.51,0,0,1,2.9.81,26.06,26.06,0,1,0,8.46-13,3.62,3.62,0,1,1-3.34-2.23,3.67,3.67,0,0,1,1.1.17,29,29,0,1,1-9.12,14.29Z" transform="translate(0)" style="fill:#112b49"/></g><g style="clip-path:url(#clip-path-2)"><path d="M34.57,181.55,48,189.38a6.27,6.27,0,0,1,1.32-1.06,5.78,5.78,0,0,1,7.93,2.16,5.92,5.92,0,0,1-2.13,8,5.65,5.65,0,0,1-1.54.62v15.66a5.72,5.72,0,0,1,1.53.62,5.9,5.9,0,0,1,2.13,8,5.78,5.78,0,0,1-7.94,2.15,5.9,5.9,0,0,1-1.44-1.18l-13.32,7.78a5.69,5.69,0,0,1,.3,1.85,5.81,5.81,0,1,1-11.62,0,5.75,5.75,0,0,1,.24-1.66L10,224.56a6,6,0,0,1-1.3,1,5.77,5.77,0,0,1-7.94-2.15,5.92,5.92,0,0,1,2.13-8,5.72,5.72,0,0,1,1.53-.62V199.13a5.65,5.65,0,0,1-1.54-.62,5.92,5.92,0,0,1-2.13-8,5.78,5.78,0,0,1,7.93-2.16A6.23,6.23,0,0,1,10,189.37l13.4-7.83a5.65,5.65,0,0,1-.24-1.66,5.81,5.81,0,1,1,11.62,0A6.13,6.13,0,0,1,34.57,181.55ZM33.17,184l13.43,7.85a5.91,5.91,0,0,0,.56,4.54,5.77,5.77,0,0,0,3.62,2.77V214.8l-.22.06L33,184.12Zm-8.18.17L7.44,214.86l-.22-.06V199.12a5.77,5.77,0,0,0,3.62-2.77,5.89,5.89,0,0,0,.55-4.55L24.82,184Zm5.63,1.39,17.54,30.72a6,6,0,0,0-1,1.32,5.81,5.81,0,0,0-.61,1.55H11.47a5.81,5.81,0,0,0-.61-1.55,6,6,0,0,0-1-1.31l17.54-30.73a5.82,5.82,0,0,0,3.24,0Zm2.68,44.57,13.34-7.8c0-.13-.08-.25-.11-.38H11.47l-.06.22L24.82,230a5.76,5.76,0,0,1,8.48.12Z" transform="translate(0)" style="fill:#e535ab;fill-rule:evenodd"/></g><path d="M170.26,70.71l-1.86-.65s.22-9.59-3.18-10.28c-2.28-2.66.36-112.95,8.54-.37,0,0-2.82,1.42-3.32,3.86A36.16,36.16,0,0,0,170.26,70.71Z" transform="translate(0)" style="fill:#fff;fill-rule:evenodd"/><path d="M170.26,70.71l-1.86-.65s.22-9.59-3.18-10.28c-2.28-2.66.36-112.95,8.54-.37,0,0-2.82,1.42-3.32,3.86A36.16,36.16,0,0,0,170.26,70.71Z" transform="translate(0)" style="fill:#a6a385;fill-rule:evenodd"/><path d="M171.26,61.43s16.31-10.83,12.5-33.38C180.07,11.66,171.4,6.29,170.44,4.22a23.51,23.51,0,0,1-2-4l.68,45.6S167.67,59.73,171.26,61.43Z" transform="translate(0)" style="fill:#fff;fill-rule:evenodd"/><path d="M171.26,61.43s16.31-10.83,12.5-33.38C180.07,11.66,171.4,6.29,170.44,4.22a23.51,23.51,0,0,1-2-4l.68,45.6S167.67,59.73,171.26,61.43Z" transform="translate(0)" style="fill:#499d4a;fill-rule:evenodd"/><path d="M167.44,62S152.13,51.47,153,32.87,164.72,5.14,166.81,3.49A4.34,4.34,0,0,0,168.31,0c.95,2.07.77,30.9.9,34.3C169.62,47.38,168.49,59.55,167.44,62Z" transform="translate(0)" style="fill:#fff;fill-rule:evenodd"/><path d="M167.44,62S152.13,51.47,153,32.87,164.72,5.14,166.81,3.49A4.34,4.34,0,0,0,168.31,0c.95,2.07.77,30.9.9,34.3C169.62,47.38,168.49,59.55,167.44,62Z" transform="translate(0)" style="fill:#58aa50;fill-rule:evenodd"/><polygon points="579.57 495.94 579.57 495.94 579.57 495.94 579.57 495.94 579.57 495.94" style="fill:#fff;stroke:#0f22d3;stroke-miterlimit:10;stroke-width:1.61026px"/><path d="M853.68,479.72h0l-706.81-.05a124.58,124.58,0,0,1-52.31-63.13c-5.33-14.5-7.82-30.42-4.27-45.44,10.26-43.4,65-64.19,79.13-106.51,8.57-25.64.33-53.48.92-80.46.66-29.34,13.16-59.38,37.36-76.58C255,73.92,323.17,99.7,378.22,80.61,414.66,68,442.52,36.45,479.89,26.77c31.56-8.16,67.26,1.64,89.94,24.71,28.34,28.81,37.22,75.52,72.93,94.86,36.58,19.81,90.86,4.11,116.89,36.21,27.3,33.65-3.07,90,23.78,124,8.76,11.09,22.13,17.48,33.75,25.65C864.16,365.28,880.61,429.58,853.68,479.72Z" transform="translate(0)" style="opacity:0.5;mix-blend-mode:multiply;fill:url(#linear-gradient)"/><path d="M206,337,193,350.3l-5.4-7.93-1.8-2.66c-5.75,1.45-14.24-9.81-17.65-15.81s10.21-15.31,10.21-15.31c-2.22-6.66-11.13-10.84-11.38-12.68s2-3.79,10.06,0,15.17,17.26,15.17,17.26c1.44-3.92-5-14.5-3.79-15.69s7.45.27,12.28,10.46,2,22.23,2,22.23l.06.11Z" transform="translate(0)" style="fill:#98b2d8"/><path d="M177.92,307.41s9.6,11,8.57,15.31-5.87-.7-5.87-.7,4.44,5.14,3,6.84-6.8-2.61-6.8-2.61,6.41,8,0,6.8-14.45-13.26-8.27-14.48c0,0-.75-8.8,4.87-5.79C173.42,312.78,170.91,305.45,177.92,307.41Z" transform="translate(0)" style="fill:#b1c3e8"/><path d="M294.64,466.55s10.82-31.59,5.13-62.74a.74.74,0,0,1,0-.21,1.57,1.57,0,0,0,0-.25c-.17-.82-.33-1.63-.5-2.45a131.93,131.93,0,0,1-14.94,10.92c-10.39,6.55-24.26,13.06-34.91,10-19.54-5.58-48.12-43.57-61.38-73.57a34.75,34.75,0,0,1,19.87-13s26.51,35.31,49.88,43.68A172.43,172.43,0,0,0,280,342c6.23-14,15.58-22.88,27.38-27.65a64,64,0,0,1,22.32-4.4l20.48-9.56a76.61,76.61,0,0,1,8.49.69c9.61,1.26,25.57,4.77,38.47,14.61C417,330.8,445.62,466.55,445.62,466.55Z" transform="translate(0)" style="fill:#b7cae5"/><path d="M299.72,403.6c-.16-.9-.35-1.8-.54-2.7a131.93,131.93,0,0,1-14.94,10.92l6.05-51.71C296.44,383.79,299.39,401.49,299.72,403.6Z" transform="translate(0)" style="fill:#97b3d1"/><path d="M358.67,301.05c-3.15,20.09-23.26,38.64-37.78,38.39-11.67-.21-13.38-16.94-13.51-25.12a64,64,0,0,1,22.32-4.4l20.48-9.56A76.61,76.61,0,0,1,358.67,301.05Z" transform="translate(0)" style="fill:#ced9ea"/><path d="M323.92,446s46.12-48,48.13-98.46l13.6,42.53-5.23,44.29Z" transform="translate(0)" style="fill:#97b3d1"/><path d="M322.58,466.54H270.94s.13-7.06,8.1-9.42,13.08-12.29,37-11Z" transform="translate(0)" style="fill:#98b2d8"/><path d="M375.42,419.07s-24.33,14-62.64,23.93c0,0-5.32,12.82,4,23.54h74.12Z" transform="translate(0)" style="fill:#b6c5dd"/><path d="M350.18,300.36s-12.82,31.11-26.29,28.77c-6.7-1.17-8.18-5.25-8.25-10-.06-6.17,2.35-13.41-1.29-16.44l16.15-22.95,3.55-5.06S338.4,287.29,350.18,300.36Z" transform="translate(0)" style="fill:#98b2d8"/><path d="M315.64,319.15c-.06-6.17,2.35-13.41-1.29-16.44l16.15-22.95c1.38,1.61,2.36,4.48,2.76,9C335.39,312.43,322.86,317.94,315.64,319.15Z" transform="translate(0)" style="fill:#799cbf"/><path d="M280.76,247.18s1.43,38.82,13,55.86c2,3,8,7.75,10.39,9.09,14.22,7.84,31.3-18.61,30.95-30.34,0,0,6.2-4.73,5.16-12.39s-9.13-5.11-10.1,7.22c0,0-4-19.22-5.22-34.64-4.13,3.42-14.8,12-19.49,7.79,0,0,1.31,17.75-10.65,7.72C294.79,257.49,287.78,250.5,280.76,247.18Z" transform="translate(0)" style="fill:#98b2d8"/><path d="M668.93,415.55s21.1,35.21,28.42,52.29H622.92a306.1,306.1,0,0,0-11.69-40.36Z" transform="translate(0)" style="fill:#5d7ca0"/><path d="M639.9,423.39c-4.07,13.5-10.28,25-19.49,33.77l2.51,10.68-90-1.11,10-61.64Z" transform="translate(0)" style="fill:#799cbf"/><path d="M781.18,231.21s3-18.67,8.91-25.29,22.14-16.43,24.06-12.94-14.3,14.42-14.3,14.42,7.32-1.75,13.6,9.06-14,19.18-14,19.18l-4,9.06-16-10.11Z" transform="translate(0)" style="fill:#799cbf"/><path d="M801.92,207.75s-9,9.19-7.72,11.82,6.31-1.5,6.31-1.5-4.07,6.19-.92,7.78,8-3.75,8-3.75-4.06,5.63-1.73,6.66,14.84-7.79,12.61-9.85-3.46-.37-3.46-.37,2.62-4.41,0-5.82a3,3,0,0,0-4.27,1.22s2.14-3.38.41-4.69-5.39.38-5.39.38S807,204,801.92,207.75Z" transform="translate(0)" style="fill:#98b2d8"/><path d="M793.53,207.53c-2.74-.79-8.32,4.92-8.32,4.92-2.2,2.83-2.65,8.45-2.73,11.05-.29,7.24-3,11.09-3,11.09l8.14,5.13c6.31-8.11,4.24-18.51,3.23-22.19C793.89,212.94,795.17,208,793.53,207.53Z" transform="translate(0)" style="fill:#98b2d8"/><path d="M798.8,246.62s-27.2,72.43-70.42,78.85c-19.33,2.86-33.93,3.16-44.14,2.61-12.17-.63-18.16-2.47-18.59-2.59,0,0,0,0,0,0s-11.86,22.09-4.18,53.82,10.46,38.35,10.46,38.35-58.26,42.84-105.64,3.83L523.5,355l-13.39-20.83s12.3-40.4,47-66.65l0,0a106.1,106.1,0,0,1,49.32-20.75,125.54,125.54,0,0,1,33.73-.32s9.41,2.66,24.72,8.27c8.24,3,18.2,6.88,29.31,11.65,31.74,13.6,40.46,17.65,40.46,17.65s33.8-33.34,42.53-53.57C777.19,230.41,794.61,232.17,798.8,246.62Z" transform="translate(0)" style="fill:#b7cae5"/><path d="M580.61,279.69c-.15,16.23-3.62,32-5.15,44.17l26.87-5.44,41.82,41.34s5.3,12.12-5.49,14.21c-8.45,1.64-47.94,7.13-47.94,7.13-9.11,12.39-13.22,31.34-17.76,49.73l-40.09-69.67Z" transform="translate(0)" style="fill:#97b3d1"/><path d="M640.17,283.59c-18.73-4.75-28.58-21.59-33.73-36.86a125.54,125.54,0,0,1,33.73-.32s9.41,2.66,24.72,8.27C666.69,268,666,290.13,640.17,283.59Z" transform="translate(0)" style="fill:#ced9ea"/><path d="M689.33,298.4s-4,15.73-5.09,29.68c-12.17-.63-18.16-2.47-18.59-2.59,0,0,0,0,0,0S676.25,307.29,689.33,298.4Z" transform="translate(0)" style="fill:#97b3d1"/><rect x="587.6" y="293.56" width="52.24" height="76.88" rx="1.95" transform="translate(-41.32 91.59) rotate(-8.26)" style="fill:#f2f4f9"/><path d="M608.61,321.41l7.15-2.79s6.8-18.83,15.25-7c0,0,5.84-3.49,5.67-5.41s-.26-4.7-.26-4.7,11.83,2.55,9.18,19.06S632.84,335,622.91,335.18l-12.38,4.88Z" transform="translate(0)" style="fill:#98b2d8"/><path d="M613.22,344.42s-55.69,36.86-79.74,19.08a96.58,96.58,0,0,1-10-8.52l-13.39-20.83s12.3-40.4,47-66.65l0,0c11.49-5.17,23.51-3.29,24.12,7.36,1.47,25.38-20.23,41-22.91,52.49l49.91-10.1S616.36,325.84,613.22,344.42Z" transform="translate(0)" style="fill:#c1cfe5"/><path d="M619.75,247.57s12.31,30.34,31.66,25.38c6.58-1.69,6.62-8.77,5.79-13.42-1.1-6.07-4.82-12.73-1.81-16.39l-20.18-19.51-4.45-4.3S628.86,232.52,619.75,247.57Z" transform="translate(0)" style="fill:#98b2d8"/><path d="M657.2,259.53c-1.1-6.07-4.82-12.73-1.81-16.39l-20.18-19.51c-1.05,1.85-1.48,4.85-1,9.34C636.54,256.65,649.89,259.69,657.2,259.53Z" transform="translate(0)" style="fill:#799cbf"/><path d="M678,195.64s3.58,15.24,1.64,29.45c-1.32,9.72-6.19,18.87-12.76,22.66-8,4.62-18.42,3.32-22.84-3.13-4.78-7-12-12.6-12.92-18.13,0,0-7-3.48-7.39-11.19s8-6.75,11.27,5.19c0,0,2.18-7.3.47-22.68,4.71,2.58,13.09,6.32,16.91,1.35,0,0,3.9,8,13.76-4.11C666.09,195.05,671.68,200.22,678,195.64Z" transform="translate(0)" style="fill:#98b2d8"/><path d="M575.8,444.33v0a28.07,28.07,0,0,1-2.58,6.76c-10.1,18.47-53.86,15.44-53.86,15.44H419.47c-41.34,0-57.91-1-61.86-13.93a17.68,17.68,0,0,1-.55-2.2c-2.8-15,11.15-63.81,36.95-97.28,13.2-17.11,26.84-26.12,39-30.83a78.35,78.35,0,0,1,29.06-5.08c12.67,0,22.9.94,31.59,3,23.3,5.46,35.5,18.63,53.78,42C569.79,390.76,580.8,424.29,575.8,444.33Z" transform="translate(0)" style="fill:#0a3d62"/><path d="M400.11,432.48c10.84-17.05,14.25-40.7,17.26-64.7l9.42,48.81h81.58l15-48.81C523,390.59,526.14,413,537,434.37,537,434.37,483.62,494.74,400.11,432.48Z" transform="translate(0)" style="fill:#1f395e;opacity:0.22;mix-blend-mode:multiply"/><path d="M424.88,466.55h-5.41c-41.34,0-57.91-1-61.86-13.93-2.16-10.15.58-20.82,12.95-24,19.37-5,53.09,14.64,53.09,14.64Z" transform="translate(0)" style="fill:#3c6382"/><path d="M575.8,444.33s0,0,0,0a28.07,28.07,0,0,1-2.58,6.76c-10.1,18.47-53.86,15.44-53.86,15.44H489.71l3.77-25.11s52.55-24.32,71.38-16.73C574.06,428.41,576.88,436.11,575.8,444.33Z" transform="translate(0)" style="fill:#3c6382"/><path d="M515.17,466.54h-95.7a4.2,4.2,0,0,1-4.19-4.19h0a4.19,4.19,0,0,1,4.19-4.18h95.7a4.19,4.19,0,0,1,4.19,4.18h0A4.2,4.2,0,0,1,515.17,466.54Z" transform="translate(0)" style="fill:#fff"/><path d="M526.76,394.58l-.35,2.18v0l-9.92,61.4H418.94l-9.81-63.64a5.17,5.17,0,0,1,5.09-5.94H521.68A5.15,5.15,0,0,1,526.76,394.58Z" transform="translate(0)" style="fill:#6a89cc"/><path d="M526.41,396.78l-9.92,61.4h-97l32.88-3.43A88.45,88.45,0,0,0,526.41,396.78Z" transform="translate(0)" style="fill:#4a69bd"/><path d="M493.65,320.2c-.88,11.73-5.74,33.11-29.37,33.11-24.92,0-30.19-21.06-31.28-31a78.35,78.35,0,0,1,29.06-5.08C474.73,317.23,485,318.17,493.65,320.2Z" transform="translate(0)" style="fill:#3c6382"/><path d="M463.88,344.42h-.65a22.82,22.82,0,0,1-9.41-1.9,17,17,0,0,1-9.73-15.92c0-.69,0-1.36,0-2,0-5.59-.34-10.23-.34-10.23v-2.51l35.15-1.57a80.58,80.58,0,0,0,1.4,13.16c0,.06,0,.1,0,.16A17.42,17.42,0,0,1,463.88,344.42Z" transform="translate(0)" style="fill:#feb19e"/><path d="M480.32,323.42c-14.64,17.19-29.68,7.15-36.21,1.15,0-5.59-.34-10.23-.34-10.23v-2.51l35.15-1.57A80.58,80.58,0,0,0,480.32,323.42Z" transform="translate(0)" style="fill:#ff856a"/><path d="M435,294.23s2.37,11.66,8.12,20.72c2.31,3.66,13,7.63,19.21,7.63,5.67,0,14.13-3.4,16.72-8.85,4.64-9.75,6.24-22.18,6.24-22.18l5.36-16.82-7-11L428,266.2Z" transform="translate(0)" style="fill:#feb19e"/><path d="M431.12,277.51s-4.77.92-4,6.68S433,297,437,293.27Z" transform="translate(0)" style="fill:#feb19e"/><path d="M489,275.1s4.85.22,4.79,6-4.09,13.47-8.58,10.4Z" transform="translate(0)" style="fill:#feb19e"/><path d="M514.13,310.26" transform="translate(0)" style="fill:#fff;stroke:#0f22d3;stroke-miterlimit:10;stroke-width:1.61026px"/><rect x="152.69" y="466.54" width="696.44" height="13.6" rx="1.75" style="fill:#c1c8d3"/><path d="M560.83,431.7H588a0,0,0,0,1,0,0v25.82a7.65,7.65,0,0,1-7.65,7.65h-11.9a7.65,7.65,0,0,1-7.65-7.65V431.7A0,0,0,0,1,560.83,431.7Z" style="fill:url(#linear-gradient-2)"/><path d="M573.35,430.72v-5.29a3.14,3.14,0,0,1,3.14-3.14h.78a3.14,3.14,0,0,0,3.14-3.14v-.78a3.13,3.13,0,0,0-3.14-3.14h-7.84a11,11,0,0,1-11-11h0a11,11,0,0,1,11-11h10.72a3.14,3.14,0,0,0,3.14-3.14h0a11.37,11.37,0,0,1,11.37-11.37h0A11.37,11.37,0,0,1,606,390.12h0a12.29,12.29,0,0,1-12.29,12.29H573.16a2.16,2.16,0,0,0-2.16,2.16h0a2.16,2.16,0,0,0,2.16,2.16h10.26a8.5,8.5,0,0,1,8.5,8.5V419a7.52,7.52,0,0,1-7.52,7.52h0a2.16,2.16,0,0,0-2.16,2.16v2.09a1,1,0,0,1-1,1h-6.93A1,1,0,0,1,573.35,430.72Z" transform="translate(0)" style="fill:url(#linear-gradient-3)"/><path d="M451.44,281.66a33.12,33.12,0,0,0-6.06-.33,49.24,49.24,0,0,0-3.3,6.42,26.92,26.92,0,0,0-1.64,5.08,10,10,0,0,0,6.91,2.32C448.33,290.58,449,285.5,451.44,281.66Z" transform="translate(0)" style="fill:#eaeced;opacity:0.4"/><path d="M477.26,281.18a32.41,32.41,0,0,0-6.05.26,48.32,48.32,0,0,0-2.67,6.71,26.25,26.25,0,0,0-1.14,5.21,10.06,10.06,0,0,0,7.1,1.64C475,290.36,475.18,285.24,477.26,281.18Z" transform="translate(0)" style="fill:#eaeced;opacity:0.4"/><path d="M482.32,290.43c2-5.91,1.43-8.44,1.36-8.7l-.13-.48-.47-.19a24.89,24.89,0,0,0-18.23.7,18.62,18.62,0,0,0-2.84,1.58v-.18l-3.43.14,0-.15-.47-.25a22.28,22.28,0,0,0-3.1-1.43,25.13,25.13,0,0,0-18.32.48l-.45.22-.1.48c-.06.28-.48,2.83,1.91,8.6a7.94,7.94,0,0,0,4.81,4.47,14.27,14.27,0,0,0,5.85.79c6.72-.73,7.91-4,8.69-6.12.05-.12.09-.23.13-.35a17.31,17.31,0,0,0,1-3.82,4.11,4.11,0,0,1,3,.06,17,17,0,0,0,1.3,4.2c.05.1.1.22.15.33.92,2.09,2.31,5.25,9.07,5.56a14.5,14.5,0,0,0,5.78-1.17A8,8,0,0,0,482.32,290.43Zm-33.85,4.1a12.68,12.68,0,0,1-4.94-.68,6,6,0,0,1-3.68-3.36,19.75,19.75,0,0,1-1.82-7,23.45,23.45,0,0,1,16.23-.19,23.16,23.16,0,0,1,2.34,1,13.85,13.85,0,0,1-1,5c0,.12-.09.24-.13.37C454.76,291.68,453.94,293.93,448.47,294.53ZM477,293.38a12.62,12.62,0,0,1-4.89,1c-5.5-.25-6.46-2.43-7.31-4.36l-.16-.36a13.91,13.91,0,0,1-1.29-4.88,20.4,20.4,0,0,1,2.26-1.2,23.4,23.4,0,0,1,16.21-.84,19.76,19.76,0,0,1-1.37,7.06A6.05,6.05,0,0,1,477,293.38Z" transform="translate(0)" style="fill:#5c311e"/><path d="M653.44,207.89a25.1,25.1,0,0,0-5.13-.31,48.7,48.7,0,0,0-2.8,6.14,27.14,27.14,0,0,0-1.39,4.85,7.88,7.88,0,0,0,5.86,2.22C650.81,216.42,651.35,211.56,653.44,207.89Z" transform="translate(0)" style="fill:#eaeced;opacity:0.4"/><path d="M675.34,207.43a24.66,24.66,0,0,0-5.13.25,50.76,50.76,0,0,0-2.27,6.41,28.79,28.79,0,0,0-1,5,7.75,7.75,0,0,0,6,1.57C673.45,216.21,673.58,211.31,675.34,207.43Z" transform="translate(0)" style="fill:#eaeced;opacity:0.4"/><path d="M679.63,216.28c1.71-5.66,1.21-8.07,1.15-8.33l-.11-.46-.39-.17a18.91,18.91,0,0,0-15.47.66,15,15,0,0,0-2.4,1.52v-.17l-2.91.13,0-.15-.39-.24a20.58,20.58,0,0,0-2.63-1.37,19.1,19.1,0,0,0-15.53.47l-.39.2-.08.47c-.05.26-.41,2.7,1.62,8.23a7.16,7.16,0,0,0,4.08,4.27,11,11,0,0,0,5,.76c5.7-.71,6.7-3.81,7.37-5.86,0-.11.07-.22.11-.33a18.93,18.93,0,0,0,.83-3.66,3.13,3.13,0,0,1,2.56.06,17.93,17.93,0,0,0,1.11,4c0,.11.08.22.13.33.78,2,2,5,7.68,5.31a11,11,0,0,0,4.91-1.12A7.33,7.33,0,0,0,679.63,216.28Zm-28.7,3.92a9.53,9.53,0,0,1-4.19-.64,5.47,5.47,0,0,1-3.12-3.22,20.94,20.94,0,0,1-1.54-6.66,17.79,17.79,0,0,1,13.76-.19,19.33,19.33,0,0,1,2,1,14.94,14.94,0,0,1-.83,4.75,3.58,3.58,0,0,0-.11.35C656.26,217.48,655.57,219.62,650.93,220.2Zm24.17-1.1a9.56,9.56,0,0,1-4.14,1c-4.67-.24-5.48-2.33-6.2-4.17,0-.12-.09-.24-.14-.35a14.76,14.76,0,0,1-1.1-4.67,18.07,18.07,0,0,1,1.93-1.14,17.75,17.75,0,0,1,13.74-.81,21.1,21.1,0,0,1-1.16,6.76A5.56,5.56,0,0,1,675.1,219.1Z" transform="translate(0)" style="fill:#5c311e"/><path d="M296.93,276.07a23.16,23.16,0,0,0-5,.58,51.15,51.15,0,0,0-1.65,6.53,29.35,29.35,0,0,0-.51,5,7.48,7.48,0,0,0,6,1.17C295.85,284.92,295.55,280.05,296.93,276.07Z" transform="translate(0)" style="fill:#eaeced;opacity:0.4"/><path d="M317.79,271.82a23.9,23.9,0,0,0-4.87,1.13,53.91,53.91,0,0,0-1.09,6.71,30.64,30.64,0,0,0-.08,5.08,7.32,7.32,0,0,0,6,.5C317.46,280.79,316.76,276,317.79,271.82Z" transform="translate(0)" style="fill:#eaeced;opacity:0.4"/><path d="M323.38,279.79c.68-5.87-.2-8.16-.3-8.4l-.19-.43-.4-.11a17.9,17.9,0,0,0-14.67,3.34,14.82,14.82,0,0,0-2.05,1.91l0-.17-2.76.63-.07-.14-.41-.16a17.9,17.9,0,0,0-2.74-.9A18.17,18.17,0,0,0,285,278.51l-.33.27v.47c0,.27.06,2.74,2.93,7.83a7,7,0,0,0,4.62,3.5,10.38,10.38,0,0,0,4.87-.11c5.33-1.69,5.77-4.91,6.06-7.05,0-.12,0-.23,0-.35a18.12,18.12,0,0,0,.18-3.75,3,3,0,0,1,2.47-.38,18.14,18.14,0,0,0,1.73,3.76l.18.3c1.08,1.83,2.71,4.6,8.24,3.9a10.57,10.57,0,0,0,4.5-1.95A7.39,7.39,0,0,0,323.38,279.79Zm-26.79,8.83a9,9,0,0,1-4.11.1,5.3,5.3,0,0,1-3.52-2.63,21.12,21.12,0,0,1-2.59-6.29,16.84,16.84,0,0,1,13.12-2.57,15.77,15.77,0,0,1,2.06.64,15.53,15.53,0,0,1,0,4.82c0,.11,0,.24-.05.36C301.24,285,300.93,287.25,296.59,288.62Zm22.93-5.26a9.27,9.27,0,0,1-3.8,1.65c-4.5.57-5.63-1.35-6.63-3-.06-.11-.13-.21-.19-.31a15.09,15.09,0,0,1-1.83-4.41,16,16,0,0,1,1.64-1.46,16.84,16.84,0,0,1,13-3.18,21.94,21.94,0,0,1,0,6.85A5.62,5.62,0,0,1,319.52,283.36Z" transform="translate(0)" style="fill:#5c311e"/><path d="M505,251.1a14.73,14.73,0,0,1-8.15,5.82c2.68-2.85,5.23-6.7,4.8-10.72a.3.3,0,0,0-.42-.23,7.52,7.52,0,0,0-1.43,1.15c-2.44,2.25-6.44,2.16-9.38,1.1-5.15-1.85-9.38-5.49-14-8.32a29.51,29.51,0,0,0-16.65-4.63,30.8,30.8,0,0,0-9.38,1.92c-7.38,2.72-16.15,8-18.12,16.27-.27,1.14-1.27,7.88.06,10.3.35.65,5.44,7.28,8.08,8.42,10.89,4.72,23.77,6.1,33.4,3.46,10.81-3,22.71-10.46,28.93-19.59a29.6,29.6,0,0,0,2.77-4.67A.29.29,0,0,0,505,251.1Z" transform="translate(0)" style="fill:#242422"/><path d="M697.92,180.12a14.89,14.89,0,0,1-7.95,5.15c2.63-2.5,5.15-5.86,4.78-9.33a.28.28,0,0,0-.39-.2,7.5,7.5,0,0,0-1.4,1c-2.39,2-6.24,2-9.06,1.09-4.95-1.53-9-4.61-13.4-7a30.19,30.19,0,0,0-16-3.76,33.12,33.12,0,0,0-9.07,1.8c-7.15,2.45-15.69,7.13-17.71,14.31-.27,1-1.34,6.83-.1,8.9.34.56,5.14,6.21,7.67,7.16,10.44,3.91,22.84,4.91,32.17,2.5,10.46-2.72,22-9.37,28.18-17.35a27.43,27.43,0,0,0,2.75-4.07C698.54,180.09,698.1,179.88,697.92,180.12Z" transform="translate(0)" style="fill:#242422"/><path d="M338.67,232.8c-.6,2.94-2.27,6.19-4.71,7.81,1.21-3.42,2-7.72.13-11.28a.29.29,0,0,0-.44-.09,6.47,6.47,0,0,0-.78,1.5c-1.23,2.8-4.61,3.93-7.46,3.85-5-.14-9.85-2.18-14.75-3.37a23.53,23.53,0,0,0-22.79,5.41c-5.19,4.73-10.63,12.21-9.27,20.4.19,1.13,1.79,7.61,3.78,9.42.53.49,7.19,5,9.82,5.27,10.83,1,22.13-1.63,29.23-7,8-6,15.24-16.47,17.13-26.73a29,29,0,0,0,.63-5.12C339.2,232.59,338.73,232.49,338.67,232.8Z" transform="translate(0)" style="fill:#242422"/><path d="M441.54,254.82s.69,11.27-4,16.73-5.13,16.58-5.13,16.58-17.15-21.87,2.35-34.61C434.77,253.52,438.67,252,441.54,254.82Z" transform="translate(0)" style="fill:#242422"/><path d="M294.78,239.15s.44,12-4.68,17.73-5.9,17.54-5.9,17.54-17.71-23.76,3.4-36.83C287.6,237.59,291.8,236,294.78,239.15Z" transform="translate(0)" style="fill:#242422"/><path d="M637.83,185.32s3.88,11.4.44,18.36-.81,18.54-.81,18.54-24.27-17.58-7.15-36.29C630.31,185.93,634,183.2,637.83,185.32Z" transform="translate(0)" style="fill:#242422"/><path d="M319,255.34a61.3,61.3,0,0,1,10.26,27.44s11.92-17.74.55-32.7C329.78,250.08,317.31,244.81,319,255.34Z" transform="translate(0)" style="fill:#242422"/><path d="M476.8,264.11a57.41,57.41,0,0,1,9.62,25.75s11.18-16.64.52-30.69C486.94,259.17,475.24,254.23,476.8,264.11Z" transform="translate(0)" style="fill:#242422"/><path d="M472.67,430a.78.78,0,0,0-1.26-.61c-1.49,1.2-1.53,2-2.78,2s-1.27-.79-2.78-2a.78.78,0,0,0-1.26.61c0,2.56-1.83,3.05-1.83,6a.78.78,0,0,0,.33.63s.11.08.12.31c.17,3.48,1.81,5,.51,6.31a.77.77,0,0,0,.22,1.24,12.83,12.83,0,0,0,9.39,0,.78.78,0,0,0,.22-1.24c-1.31-1.35.33-2.83.5-6.31a.37.37,0,0,1,.12-.31.76.76,0,0,0,.33-.63C474.5,433.07,472.67,432.56,472.67,430Z" transform="translate(0)" style="fill:#f7f7f7"/><path d="M472.67,430a.78.78,0,0,0-1.26-.61c-1.49,1.2-1.53,2-2.78,2v14a11.55,11.55,0,0,0,4.7-.89.78.78,0,0,0,.22-1.24c-1.31-1.35.33-2.83.5-6.31a.37.37,0,0,1,.12-.31.76.76,0,0,0,.33-.63C474.5,433.07,472.67,432.56,472.67,430Z" transform="translate(0)" style="fill:#e0e0e0"/><path d="M476.19,425.64c-.2-4.27-3.33-6.7-7.56-6.7s-7.36,2.44-7.56,6.7c-.23,5.16-3.81,7.49-1.6,12.39.33.73,2.51,1.16,2.33-.63-.07-.68.95-1,1.29-.74a.78.78,0,0,0,1.23-.63c0-2.43,1.82-2.95,1.82-6a.79.79,0,0,0-.29-.61c-.25-.2-.56-.43-.91-.68l.73-.16a.78.78,0,0,0,.39-1.31,1.94,1.94,0,0,1-.48-1.36c0-.74.4-1.58.93-1.58s.93.84.93,1.58a2.21,2.21,0,0,1-.21,1,.78.78,0,0,0,.48,1.42,12.55,12.55,0,0,1,1.84,0,.78.78,0,0,0,.48-1.42,2.21,2.21,0,0,1-.21-1c0-.74.4-1.58.93-1.58s.93.84.93,1.58a1.94,1.94,0,0,1-.48,1.36.78.78,0,0,0,.4,1.31l.72.16c-.35.25-.66.48-.91.68a.79.79,0,0,0-.29.61c0,3.08,1.83,3.58,1.83,6a.78.78,0,0,0,1.23.63c.33-.24,1.35.06,1.29.74-.18,1.79,2,1.36,2.32.63C480,433.13,476.43,430.81,476.19,425.64Z" transform="translate(0)" style="fill:#294a4a"/><path d="M476.19,425.64c-.2-4.27-3.33-6.7-7.56-6.7v9.32c.3,0,.6,0,.92,0a.78.78,0,0,0,.48-1.42,2.21,2.21,0,0,1-.21-1c0-.74.4-1.58.93-1.58s.93.84.93,1.58a1.94,1.94,0,0,1-.48,1.36.78.78,0,0,0,.4,1.31l.72.16c-.35.25-.66.48-.91.68a.79.79,0,0,0-.29.61c0,3.08,1.83,3.58,1.83,6a.78.78,0,0,0,1.23.63c.33-.24,1.35.06,1.29.74-.18,1.79,2,1.36,2.32.63C480,433.13,476.43,430.81,476.19,425.64Z" transform="translate(0)" style="fill:#1c2323"/><path d="M470.75,422.76a2.26,2.26,0,0,1-4.24,0c-1.35,0-2.48,1.35-2.48,3.13a3.48,3.48,0,0,0,.93,2.46.81.81,0,0,0,.71.21,14.81,14.81,0,0,1,2.14-.28.79.79,0,0,0,.59-.34c.08-.13.16-.26.23-.4.07.14.15.27.23.4a.81.81,0,0,0,.6.34,16.82,16.82,0,0,1,2.14.28.79.79,0,0,0,.7-.21,3.48,3.48,0,0,0,.93-2.46C473.23,424.1,472.09,422.76,470.75,422.76Z" transform="translate(0)" style="fill:#f7f7f7"/><path d="M470.75,422.76a2.4,2.4,0,0,0-2.12,1.48v3.3c.07.14.15.27.23.4a.81.81,0,0,0,.6.34,16.82,16.82,0,0,1,2.14.28.79.79,0,0,0,.7-.21,3.48,3.48,0,0,0,.93-2.46C473.23,424.1,472.09,422.76,470.75,422.76Z" transform="translate(0)" style="fill:#e0e0e0"/><path d="M464.76,436.89c-.08-1.72-1.91-2.33-3.34-1.5a2.28,2.28,0,0,0-1.14,1.53,2.18,2.18,0,0,0-3,3,2.52,2.52,0,0,0-1.68,3.45,1.87,1.87,0,0,0,1.65,1c2.29.11,3.75,1,5.24,1a3.12,3.12,0,0,0,2.33-1C466.92,442.2,464.92,440.22,464.76,436.89Z" transform="translate(0)" style="fill:#ffd664"/><path d="M480,439.91a2.33,2.33,0,0,0-.32-2.66,2.38,2.38,0,0,0-2.67-.33,2.3,2.3,0,0,0-1.13-1.53c-1.44-.83-3.27-.22-3.35,1.5-.16,3.36-2.19,5.32,0,7.52a3.05,3.05,0,0,0,2.27,1c1.49,0,2.95-.9,5.24-1h0a1.87,1.87,0,0,0,1.65-1A2.52,2.52,0,0,0,480,439.91Z" transform="translate(0)" style="fill:#ff9842"/><path d="M472.7,427.22a16.34,16.34,0,0,0-8.13,0,1.55,1.55,0,0,0-.52,2.77,9.34,9.34,0,0,1,1.79,1.54,3.46,3.46,0,0,0,5.59,0,9.1,9.1,0,0,1,1.79-1.54A1.55,1.55,0,0,0,472.7,427.22Z" transform="translate(0)" style="fill:#ffd664"/><path d="M472.7,427.22a16.75,16.75,0,0,0-4.07-.51V433a3.47,3.47,0,0,0,2.8-1.42,9.1,9.1,0,0,1,1.79-1.54A1.55,1.55,0,0,0,472.7,427.22Z" transform="translate(0)" style="fill:#ff9842"/><path d="M470.86,426.1a.82.82,0,0,0,.82-.81.82.82,0,0,0-.82-.82.82.82,0,0,0-.81.82A.81.81,0,0,0,470.86,426.1Z" transform="translate(0)" style="fill:#1c2323"/><path d="M466.4,426.1a.81.81,0,0,0,.81-.81.81.81,0,1,0-1.62,0A.81.81,0,0,0,466.4,426.1Z" transform="translate(0)" style="fill:#294a4a"/></g></g></svg>