<svg id="Layer_1" data-name="Layer 1" xmlns="http://www.w3.org/2000/svg" width="1026.13" height="262.46" viewBox="0 0 1026.13 262.46"><title>work</title><path d="M847.47,261.06,680.74,261l-141.59,0h-19.5l-330.22-.1s-17.41-43.05-12.74-89.6a140,140,0,0,1,2.86-17.55s0,0,0-.05c.83-3.59,1.82-7.18,3-10.74a106.52,106.52,0,0,1,25.68-42.39C284.84,23.22,383.84,87.85,421,86S460.23,9.89,571.22,1c61.56-4.91,127.65,6.59,149,58.22,8.41,20.34,9.87,46.92,1.37,81.18-4.94,19.92-.7,32.11,8.73,40,19.59,16.41,61.58,14.29,90.2,24.5C841.85,212.54,855.76,227,847.47,261.06Z" style="fill:#f1f3fa"/><path d="M729.51,180.43,185.29,243a139,139,0,0,1-6.2-51.3l539-132.41c9.5,20.34,11.16,46.92,1.55,81.18C714.06,160.35,718.85,172.54,729.51,180.43Z" style="fill:#edeff8"/><path d="M528.25,83.55,175.89,171.26a140,140,0,0,1,2.86-17.55l0-.05c.83-3.59,1.82-7.18,3-10.74Z" style="fill:#edeff8"/><polygon points="685.23 75.79 689.74 75.79 720.83 89.17 716.31 89.17 685.23 75.79" style="fill:#ecf0fa"/><path d="M781.84,117c-2.42-4-3.54,1.9-3.11,11.68C778.77,188.27,783.81,143.05,781.84,117Z" style="fill:#f6ba59"/><path d="M783.61,160.61c-.79-6.73-13.19.61-3.38,5.18A4,4,0,0,0,783.61,160.61Z" style="fill:#ecf0fa"/><path d="M812.82,261.76c-15.57,6.75-4.53-37.44-7.66-55.23C805.74-10.18,817.07,197,812.82,261.76Z" style="fill:#ecf0fa"/><path d="M784.89,58.91c-35.46,76.8-.13,76.5,67.4,58.67C840.74,61.9,839.61,42.44,784.89,58.91Z" style="fill:#ffcd69"/><path d="M819.87,66c-9.92-2.36-32.82,10.38-35.25,18.09C806.12,66.16,821.54,69.88,819.87,66Z" style="fill:#f5f7fa"/><path d="M838.1,92c-10.66-4.82-49.85,16.11-51.35,24.59C826.83,89,833.5,99.75,838.1,92Z" style="fill:#f5f7fa"/><g style="opacity:0.8"><path d="M122.62,178.68C119.57,198,93.43,216.82,84.88,228s5.44,23.05-4.21,33.81H30c2.77-14.37,3.91-21.4-12.47-40.22C-1,196.76-1.37,189.9,1.05,177.21c4.16-16.6,17.17-28.69,25-40.32C36.88,120.25,18.88,95,24.18,76.41c5.91-22.65,27.53-32.27,40.29-19.87,10,9.75,14,31.12,23.39,50.73C107.7,142.88,127.32,150.34,122.62,178.68Z" style="fill:#324db2"/><path d="M55.66,213c-.16.59-.32,1.19-.5,1.78a244,244,0,0,1-18.86,47H34.81c11.28-21.34,21.61-48,25.48-78.37h0l.24-2v0c2.52-15.63.66-33.45.17-50.08C66.58,159.49,61.7,189.27,55.66,213Z" style="fill:#ecf0fa"/><path d="M60.32,183.44c.32-.8-26-38.2-20.58-35.08C39.35,149.27,65.13,185.48,60.32,183.44Z" style="fill:#ecf0fa"/><path d="M54.93,214.66c-1.55-.93,11.47-9.95,21.62-18.67,8.54-6.19,16.56-15.35,15.8-11.13C91.29,185,56.22,215.6,54.93,214.66Z" style="fill:#ecf0fa"/><path d="M1025.43,178.68c-3.05,19.35-29.19,38.14-37.74,49.3s5.44,23.05-4.21,33.81H932.83c2.77-14.37,3.91-21.4-12.47-40.22-18.52-24.81-18.92-31.67-16.51-44.36,4.17-16.6,17.18-28.69,25-40.32C939.69,120.25,921.69,95,927,76.41c5.92-22.65,27.54-32.27,40.3-19.87,10,9.75,14,31.12,23.38,50.73C1010.51,142.88,1030.13,150.34,1025.43,178.68Z" style="fill:#324db2"/><path d="M958.46,213c-.15.59-.31,1.19-.49,1.78a244,244,0,0,1-18.87,47h-1.49c11.29-21.34,21.62-48,25.49-78.37h0l.24-2v0c2.51-15.63.66-33.45.16-50.08C969.39,159.49,964.51,189.27,958.46,213Z" style="fill:#ecf0fa"/><path d="M963.13,183.44c.32-.8-26-38.2-20.59-35.08C942.16,149.27,967.94,185.48,963.13,183.44Z" style="fill:#ecf0fa"/><path d="M957.74,214.66c-1.55-.93,11.47-9.95,21.62-18.67,8.54-6.19,16.56-15.35,15.8-11.13C994.1,185,959,215.6,957.74,214.66Z" style="fill:#ecf0fa"/></g><path d="M366.2,173c-9.57-.42-9.11-14,0-14.31C375.78,159.1,375.31,172.68,366.2,173Z" style="fill:#ecf0fa;fill-rule:evenodd"/><path d="M359.68,148c11.18-5.2-39.39-10.77-36.89-8.4-15.06,29-33.13,48.46-25.54,57,36.28,100.23,13.11,26.43,6.92,13.07-.19-.17,19,40.06,21.05,44.48,13.2,11.77-20.84-51.56-25.46-63.21C327.05,124.85,330.1,146.08,359.68,148Z" style="fill:#324db2;fill-rule:evenodd"/><path d="M359.81,143.33c-3.19.18-10.91,11.28,1.18,6.61C371.14,150,367.91,144.71,359.81,143.33Z" style="fill:#6378c4;fill-rule:evenodd"/><path d="M361.4,148.06c-19.88,6.44-31.65,35.36,5.67,21.79C406.2,169.27,377.85,146.33,361.4,148.06Z" style="fill:#ed5565;fill-rule:evenodd"/><path d="M324.75,144.22a3.39,3.39,0,0,1,0-6.78A3.39,3.39,0,0,1,324.75,144.22Z" style="fill:#788acc;fill-rule:evenodd"/><path d="M296.78,193.11a3.39,3.39,0,0,1,0-6.78A3.39,3.39,0,0,1,296.78,193.11Z" style="fill:#788acc;fill-rule:evenodd"/><path d="M368.6,175.46c-4.4-4.34.79,15.21,1.44,6.73C369.61,180.2,368.66,175.73,368.6,175.46Z" style="fill:#fff;fill-rule:evenodd"/><path d="M374.57,172.84c-4.93-2,4.69,9.86,5.45,5.75C380.35,177.94,374.72,173.17,374.57,172.84Z" style="fill:#fff;fill-rule:evenodd"/><path d="M362.46,175.74c.13-3.88-6.1,4.6-4.36,7.89C360.81,182.07,360.59,179.69,362.46,175.74Z" style="fill:#fff;fill-rule:evenodd"/><path d="M323.39,242.8c-23.5,3.6-33.83,21.49,1.74,16.38C362,264,340.84,244.26,323.39,242.8Z" style="fill:#788acc;fill-rule:evenodd"/><path d="M307.88,247.55c1.19,11.48,49.32,2.66,34.59,11.64C305.72,257.77,292.13,265.23,307.88,247.55Z" style="fill:#5d72c2;fill-rule:evenodd"/><path d="M437.34,259.79H354v-3.06h80.22a3.08,3.08,0,0,1,3.11,3.06Z" style="fill:#596fc1"/><rect x="354.01" y="206.7" width="69.24" height="52.37" rx="3.34" style="fill:#4a89dc"/><rect x="356.9" y="209.2" width="63.46" height="46.64" style="fill:#fcfcfe"/><path d="M420.36,255.83s0-.29,0-.85,0-1.41,0-2.5c0-2.18,0-5.38,0-9.45,0-8.15,0-19.8,0-33.83l.08.06H356.9l.09-.07c0,16.93,0,32.89,0,46.63l-.08-.06,45.9,0,12.95,0h0l-12.94,0-46,0h-.08v-.07c0-13.74,0-29.7,0-46.63v-.08h63.63v.07c0,14.05,0,25.71,0,33.87,0,4.07,0,7.26,0,9.44,0,1.09,0,1.92,0,2.48S420.36,255.83,420.36,255.83Z" style="fill:#324db2"/><path d="M410.86,221.75c-13.94.09-25.93,0-43.83.08l.08-.08v21.53l-.08-.08c17.82,0,29.11,0,43.52.08-13.85.09-25.81.05-43.59.08,0-6.53,0-14.43,0-21.69C384.89,221.71,396.35,221.66,410.86,221.75Z" style="fill:#ecf0fa"/><path d="M410.86,225.37c1,.1-45.06.1-43.83,0C366,225.27,412.09,225.28,410.86,225.37Z" style="fill:#ecf0fa"/><path d="M410.86,231.31c1,.1-45.06.09-43.83,0C366,231.21,412.09,231.21,410.86,231.31Z" style="fill:#ecf0fa"/><path d="M410.86,234.27c1,.1-45.06.1-43.83,0C366,234.17,412.09,234.17,410.86,234.27Z" style="fill:#ecf0fa"/><path d="M410.86,237.24c1,.1-45.06.1-43.83,0C366,237.14,412.09,237.14,410.86,237.24Z" style="fill:#ecf0fa"/><path d="M367,240.2c-1-.1,45.06-.09,43.83,0C411.89,240.3,365.8,240.3,367,240.2Z" style="fill:#ecf0fa"/><path d="M375.71,243.61c-.09.63-.1-22,0-21.86C375.81,221.11,375.81,243.76,375.71,243.61Z" style="fill:#ecf0fa"/><path d="M384.5,243.61c-.1.63-.1-22,0-21.86C384.59,221.11,384.6,243.76,384.5,243.61Z" style="fill:#ecf0fa"/><path d="M393.29,243.61c-.1.63-.11-22,0-21.86C393.38,221.11,393.39,243.76,393.29,243.61Z" style="fill:#ecf0fa"/><path d="M402.08,243.61c-.1.63-.11-22,0-21.86C402.17,221.11,402.18,243.76,402.08,243.61Z" style="fill:#ecf0fa"/><path d="M410.86,243.61c-.09.63-.1-22,0-21.86C411,221.11,411,243.76,410.86,243.61Z" style="fill:#ecf0fa"/><path d="M410.86,225.37c-4.88,3.51-10.86,7.48-17.55,12l-8.86-3,.13,0-8.81,5.91c-3.1,1.07-5.33,1.86-8.12,2.79l-.46.14-.16,0,.15-.07.45-.18c1.93-.73,4.59-1.68,8-2.94h0c2-1.36,5.52-3.75,8.84-6l8.86,3-.14,0C400.29,232.38,404.74,229.28,410.86,225.37Z" style="fill:#8a9ad3"/><path d="M376.25,240.2c-.24-.53-.54-.53,0,0-1.07-.29-1.07,0-.54-.53C376.28,240.18,375.78,241.35,376.25,240.2Z" style="fill:#8a9ad3"/><path d="M385,234.27c-.24-.53-.53-.53,0,0-1.07-.29-1.07,0-.53-.53C385.07,234.25,384.57,235.41,385,234.27Z" style="fill:#8a9ad3"/><path d="M393.82,237.19c-.24-.54-.53-.54,0,0-1.07-.3-1.07,0-.53-.54C393.86,237.17,393.36,238.33,393.82,237.19Z" style="fill:#8a9ad3"/><path d="M402.7,231.33c-.24-.53-.54-.53,0,0-1.07-.29-1.07,0-.54-.53C402.73,231.31,402.23,232.47,402.7,231.33Z" style="fill:#8a9ad3"/><path d="M385,228.34c-.24-.54-.53-.54,0,0-1.07-.3-1.07,0-.53-.54C385.07,228.32,384.57,229.48,385,228.34Z" style="fill:#596fc1"/><path d="M376.25,237.24c-.24-.54-.54-.54,0,0-1.07-.3-1.07,0-.54-.54C376.28,237.22,375.78,238.38,376.25,237.24Z" style="fill:#596fc1"/><path d="M393.82,240.2c-.24-.53-.53-.53,0,0-1.07-.29-1.07,0-.53-.53C393.86,240.18,393.36,241.35,393.82,240.2Z" style="fill:#596fc1"/><path d="M402.61,234.81c-.24-.54-.53-.54,0,0-1.07-.3-1.07,0-.53-.54C402.64,234.79,402.14,236,402.61,234.81Z" style="fill:#596fc1"/><path d="M372,245.74a2.56,2.56,0,0,1-.84.07,2.59,2.59,0,0,1-.85-.07,2.19,2.19,0,0,1,.85-.08A2.15,2.15,0,0,1,372,245.74Z" style="fill:#ecf0fa"/><path d="M381,245.74a2.51,2.51,0,0,1-.84.07,2.59,2.59,0,0,1-.85-.07,2.19,2.19,0,0,1,.85-.08A2.11,2.11,0,0,1,381,245.74Z" style="fill:#ecf0fa"/><path d="M390,245.74a5.2,5.2,0,0,1-1.7,0,4.56,4.56,0,0,1,1.7,0Z" style="fill:#ecf0fa"/><path d="M399,245.74a2.59,2.59,0,0,1-.85.07,2.56,2.56,0,0,1-.84-.07,2.15,2.15,0,0,1,.84-.08A2.19,2.19,0,0,1,399,245.74Z" style="fill:#ecf0fa"/><path d="M408,245.74a2.59,2.59,0,0,1-.85.07,2.56,2.56,0,0,1-.84-.07,2.15,2.15,0,0,1,.84-.08A2.19,2.19,0,0,1,408,245.74Z" style="fill:#ecf0fa"/><rect x="366.8" y="214.29" width="12.59" height="0.89" style="fill:#8a9ad3"/><path d="M401.89,216.9c.78.1-35.84.1-35.17,0C366.14,216.79,402.6,216.8,401.89,216.9Z" style="fill:#324db2"/><path d="M389,250c.62.1-21.59.1-21.44,0C367,250,389.19,249.94,389,250Z" style="fill:#324db2"/><path d="M372.74,251.66c.24.1-5.83.1-4.27,0A42,42,0,0,1,372.74,251.66Z" style="fill:#324db2"/><path d="M408.47,249.76c.45.1-17,.09-15.12,0C394.45,249.65,408.45,249.66,408.47,249.76Z" style="fill:#324db2"/><path d="M400.18,250.8c.26.1-6.06.11-4.44,0C396.83,250.71,399.54,250.71,400.18,250.8Z" style="fill:#324db2"/><g style="opacity:0.7"><path d="M504.4,254.93v6.83h-59a14.62,14.62,0,0,1,.13-2.43c1-8,8.43-10.73,18.18-11.16,0,2.34-.12,4.6-.28,6.76Z" style="fill:#324db2"/><path d="M580.74,261.76H521.21v-6.83h41c0-1.81,0-3.62,0-5.44,9.49.5,16.77,2.94,18.27,9.95A12.92,12.92,0,0,1,580.74,261.76Z" style="fill:#324db2"/><path d="M562.21,254.93H463.43c.16-2.16.25-4.42.28-6.76,12.47-.55,28.81,2.69,40.69,3.58,4.73.35,8.76.33,11.55-.45a50.84,50.84,0,0,0,5.26.24c11.88,0,28.37-2.73,41-2C562.17,251.31,562.18,253.12,562.21,254.93Z" style="fill:#324db2"/><path d="M562.19,249.49c0,1.82,0,3.63,0,5.44H463.43c.16-2.16.25-4.42.28-6.76.49-43.43-19.95-115.55,46.74-120.72C579.38,130.59,562.42,191.57,562.19,249.49Z" style="fill:#324db2"/><path d="M521.77,172.58c-7.67-.73-26.83,3.67-27.46-8.59h0c-.33-13.64,39.07-11.2,37,0h0C531.3,168.74,527,172.58,521.77,172.58Z" style="fill:#f6f8fd"/><rect x="504.4" y="254.93" width="16.81" height="6.83" style="fill:#324db2"/><path d="M521.21,162.45v99.31H504.4v-3.4c0-20.33,0-64.3,0-84.89v-10C501.78,160,518,155.69,521.21,162.45Z" style="fill:#edf1fa"/></g><path d="M883.61,260.4c1.32,3-741.73,1.89-741.42.39-.25-1.18,142.83-1.51,303.34-1.46a14.62,14.62,0,0,0-.13,2.43H580.74a12.92,12.92,0,0,0-.28-2.32C740.65,259.67,883.41,260.14,883.61,260.4Z" style="fill:#324db2"/><g style="opacity:0.9"><path d="M670.33,260.09c.36,0-47.14,0-48.2,0C613.5,248.09,680.08,249.46,670.33,260.09Z" style="fill:#967adc"/><path d="M634.87,258.43c-1.58.14-19.31,1-11.42-3.88C628.69,256,636.76,250.76,634.87,258.43Z" style="fill:#ecf0fa"/><path d="M674.63,252.89c.36,0-47.14,0-48.2,0C617.8,240.89,684.38,242.26,674.63,252.89Z" style="fill:#8a9ad3"/><path d="M674.63,251c-1-2-37.76,4.52-32.69-3.6C642.94,249.4,679.7,242.89,674.63,251Z" style="fill:#ecf0fa"/><path d="M619.23,245.68c-.36,0,47.15,0,48.2,0C676.07,233.69,609.48,235.06,619.23,245.68Z" style="fill:#a0d468"/><path d="M654.69,244c1.58.15,19.31,1,11.42-3.88C660.87,241.62,652.8,236.35,654.69,244Z" style="fill:#ecf0fa"/></g></svg>